<?xml version="1.0" encoding="utf-8"?>
<!-- Generator: Adobe Illustrator 27.5.0, SVG Export Plug-In . SVG Version: 6.00 Build 0)  -->
<svg version="1.1" id="Layer_1" xmlns="http://www.w3.org/2000/svg" xmlns:xlink="http://www.w3.org/1999/xlink" x="0px" y="0px"
	 viewBox="0 0 319.041 284.573" style="enable-background:new 0 0 319.041 284.573;" xml:space="preserve">
<g>
	<g>
		<path style="fill:#FFFFFF;" d="M165.145,276.836c1.191,0.42,2.416,0.623,3.63,0.623c3.244-0.001,6.398-1.448,8.513-4.075
			l127.983-158.963c1.178-0.668,2.233-1.557,3.101-2.629l0.262-0.323c1.727-2.133,2.564-4.807,2.415-7.48
			c0.178-3.184-1.036-6.408-3.566-8.704l-73.627-66.822c-2.011-1.824-4.628-2.835-7.343-2.835H111.04
			c-2.715,0-5.332,1.011-7.343,2.835L30.07,95.284c-2.527,2.294-3.742,5.518-3.565,8.7c-0.025,0.453-0.022,0.912,0.01,1.375
			c0.262,3.742,2.4,6.977,5.509,8.741l128.112,159.118C161.394,274.845,163.112,276.12,165.145,276.836z"/>
		<path style="fill:#F1F1F1;" d="M163.461,275.153c1.19,0.42,2.416,0.623,3.631,0.623c3.244-0.001,6.398-1.448,8.512-4.076
			l127.984-158.962c1.178-0.669,2.232-1.557,3.1-2.629l0.262-0.323c1.727-2.133,2.565-4.807,2.416-7.48
			c0.178-3.184-1.036-6.409-3.566-8.704l-73.627-66.822c-2.01-1.825-4.627-2.835-7.342-2.835H109.357
			c-2.715,0-5.332,1.011-7.343,2.835L28.388,93.601c-2.528,2.294-3.742,5.518-3.565,8.7c-0.025,0.453-0.022,0.913,0.01,1.376
			c0.262,3.742,2.4,6.977,5.509,8.741l128.112,159.118C159.711,273.162,161.43,274.438,163.461,275.153z"/>
		<path style="fill:#E2E2E2;" d="M161.778,273.471c1.19,0.419,2.416,0.622,3.63,0.622c3.245-0.001,6.398-1.448,8.513-4.075
			l127.983-158.963c1.179-0.668,2.233-1.557,3.101-2.629l0.262-0.323c1.727-2.133,2.565-4.807,2.416-7.48
			c0.177-3.184-1.036-6.408-3.566-8.704l-73.627-66.822c-2.011-1.824-4.628-2.835-7.342-2.835H107.674
			c-2.715,0-5.332,1.011-7.342,2.835L26.705,91.918c-2.528,2.294-3.742,5.518-3.566,8.7c-0.025,0.454-0.023,0.913,0.01,1.376
			c0.262,3.742,2.4,6.977,5.51,8.741L156.77,269.853C158.027,271.478,159.747,272.754,161.778,273.471z"/>
		<path style="fill:#D4D4D4;" d="M160.096,271.788c1.19,0.419,2.416,0.622,3.63,0.622c3.245-0.001,6.397-1.448,8.513-4.075
			l127.983-158.963c1.178-0.669,2.233-1.557,3.101-2.629l0.262-0.323c1.726-2.133,2.564-4.807,2.416-7.48
			c0.177-3.183-1.037-6.408-3.566-8.704l-73.627-66.823c-2.011-1.824-4.628-2.835-7.342-2.835H105.991
			c-2.715,0-5.332,1.011-7.343,2.835L25.022,90.235c-2.528,2.294-3.743,5.518-3.566,8.7c-0.025,0.453-0.023,0.913,0.01,1.376
			c0.262,3.741,2.4,6.977,5.509,8.741L155.087,268.17C156.345,269.796,158.064,271.071,160.096,271.788z"/>
		<path style="fill:#C5C5C5;" d="M158.412,270.104c1.191,0.42,2.416,0.623,3.631,0.623c3.244-0.001,6.397-1.448,8.512-4.076
			l127.984-158.962c1.178-0.669,2.232-1.557,3.1-2.629l0.262-0.324c1.727-2.133,2.565-4.806,2.416-7.48
			c0.178-3.184-1.036-6.408-3.566-8.704L227.123,21.73c-2.01-1.825-4.627-2.835-7.342-2.835H104.309
			c-2.715,0-5.332,1.011-7.343,2.835L23.339,88.552c-2.528,2.295-3.742,5.518-3.566,8.7c-0.025,0.453-0.022,0.913,0.01,1.376
			c0.262,3.742,2.4,6.977,5.509,8.741l128.112,159.118C154.662,268.113,156.381,269.389,158.412,270.104z"/>
		<path style="fill:#B7B7B7;" d="M156.73,268.422c1.19,0.419,2.416,0.622,3.631,0.622c3.244-0.001,6.397-1.448,8.512-4.075
			l127.983-158.962c1.179-0.668,2.233-1.557,3.101-2.629l0.262-0.323c1.727-2.133,2.565-4.807,2.416-7.481
			c0.177-3.184-1.036-6.408-3.566-8.704L225.44,20.047c-2.011-1.824-4.628-2.835-7.342-2.835H102.625
			c-2.715,0-5.332,1.011-7.342,2.835L21.656,86.869c-2.528,2.294-3.742,5.518-3.566,8.7c-0.025,0.453-0.021,0.912,0.011,1.375
			c0.261,3.742,2.399,6.977,5.509,8.741l128.111,159.118C152.979,266.43,154.698,267.706,156.73,268.422z"/>
		<path style="fill:#A8A8A8;" d="M155.047,266.739c1.19,0.419,2.416,0.622,3.63,0.622c3.245-0.001,6.397-1.448,8.513-4.075
			l127.983-158.963c1.179-0.668,2.233-1.557,3.1-2.629l0.262-0.323c1.727-2.133,2.564-4.807,2.416-7.48
			c0.177-3.184-1.037-6.409-3.566-8.704l-73.627-66.822c-2.011-1.825-4.628-2.835-7.342-2.835H100.942
			c-2.715,0-5.332,1.011-7.342,2.835L19.974,85.187c-2.528,2.294-3.743,5.518-3.566,8.7c-0.025,0.453-0.022,0.913,0.011,1.376
			c0.261,3.741,2.399,6.977,5.508,8.741l128.112,159.118C151.296,264.747,153.016,266.022,155.047,266.739z"/>
		<path style="fill:#9A9A9A;" d="M153.364,265.056c1.19,0.42,2.415,0.623,3.63,0.623c3.244-0.001,6.398-1.448,8.512-4.076
			L293.49,102.64c1.178-0.668,2.232-1.557,3.1-2.629l0.262-0.323c1.727-2.133,2.565-4.807,2.416-7.481
			c0.178-3.184-1.036-6.408-3.566-8.704l-73.627-66.822c-2.01-1.824-4.627-2.835-7.342-2.835H99.26
			c-2.715,0-5.332,1.011-7.343,2.835L18.291,83.503c-2.528,2.294-3.743,5.518-3.566,8.7c-0.025,0.454-0.023,0.913,0.01,1.375
			c0.262,3.742,2.4,6.977,5.509,8.741l128.112,159.118C149.613,263.064,151.332,264.34,153.364,265.056z"/>
		<path style="fill:#8B8B8B;" d="M151.682,263.373c1.189,0.419,2.415,0.623,3.63,0.623c3.244-0.001,6.398-1.448,8.512-4.076
			l127.983-158.962c1.179-0.668,2.233-1.557,3.101-2.629l0.262-0.323c1.727-2.133,2.565-4.807,2.416-7.48
			c0.177-3.183-1.036-6.408-3.566-8.704l-73.627-66.823c-2.011-1.824-4.627-2.835-7.342-2.835H97.576
			c-2.714,0-5.331,1.011-7.342,2.835L16.607,81.821c-2.527,2.294-3.742,5.518-3.566,8.7c-0.024,0.453-0.022,0.912,0.011,1.376
			c0.262,3.741,2.399,6.977,5.509,8.741l128.111,159.118C147.93,261.381,149.649,262.657,151.682,263.373z"/>
		<path style="fill:#7D7D7D;" d="M149.998,261.69c1.191,0.419,2.416,0.622,3.631,0.622c3.244-0.001,6.397-1.448,8.512-4.075
			L290.124,99.274c1.179-0.668,2.233-1.557,3.101-2.629l0.262-0.323c1.727-2.134,2.565-4.807,2.416-7.481
			c0.177-3.184-1.037-6.408-3.566-8.704l-73.627-66.822c-2.011-1.825-4.628-2.835-7.342-2.835H95.894
			c-2.715,0-5.331,1.011-7.342,2.835L14.925,80.138c-2.528,2.294-3.743,5.518-3.566,8.7c-0.024,0.453-0.023,0.913,0.011,1.375
			c0.262,3.742,2.4,6.977,5.508,8.741l128.112,159.118C146.247,259.698,147.967,260.974,149.998,261.69z"/>
		<path style="fill:#6E6E6E;" d="M148.315,260.007c1.191,0.42,2.415,0.623,3.63,0.623c3.244-0.001,6.398-1.448,8.512-4.075
			L288.441,97.592c1.178-0.668,2.232-1.557,3.101-2.629l0.261-0.323c1.727-2.133,2.565-4.807,2.416-7.48
			c0.178-3.184-1.036-6.408-3.566-8.704l-73.626-66.822c-2.011-1.824-4.628-2.835-7.343-2.835H94.211
			c-2.715,0-5.332,1.011-7.342,2.835L13.242,78.455c-2.528,2.294-3.743,5.518-3.566,8.7c-0.025,0.453-0.023,0.912,0.01,1.375
			c0.262,3.742,2.4,6.977,5.509,8.741l128.112,159.118C144.564,258.016,146.283,259.291,148.315,260.007z"/>
		<path style="fill:#606060;" d="M146.633,258.324c1.189,0.42,2.415,0.623,3.63,0.623c3.244-0.001,6.398-1.448,8.512-4.076
			L286.758,95.909c1.179-0.669,2.233-1.557,3.101-2.629l0.262-0.323c1.727-2.133,2.565-4.807,2.416-7.48
			c0.177-3.184-1.036-6.409-3.566-8.704L215.343,9.95c-2.01-1.825-4.627-2.836-7.342-2.836H92.527c-2.714,0-5.331,1.011-7.342,2.836
			L11.559,76.772c-2.527,2.294-3.742,5.517-3.566,8.7c-0.024,0.453-0.022,0.913,0.011,1.375c0.262,3.742,2.399,6.977,5.509,8.741
			l128.111,159.118C142.882,256.332,144.601,257.608,146.633,258.324z"/>
	</g>
	<path style="fill:#FFFFFF;" d="M146.633,258.324c1.189,0.42,2.415,0.623,3.63,0.623c3.244-0.001,6.398-1.448,8.512-4.076
		L286.758,95.909c1.179-0.669,2.233-1.557,3.101-2.629l0.262-0.323c1.727-2.133,2.565-4.807,2.416-7.48
		c0.177-3.184-1.036-6.409-3.566-8.704L215.343,9.95c-2.01-1.825-4.627-2.836-7.342-2.836H92.527c-2.714,0-5.331,1.011-7.342,2.836
		L11.559,76.772c-2.527,2.294-3.742,5.517-3.566,8.7c-0.024,0.453-0.022,0.913,0.011,1.375c0.262,3.742,2.399,6.977,5.509,8.741
		l128.111,159.118C142.882,256.332,144.601,257.608,146.633,258.324z"/>
	<g>
		<polygon style="fill:#4098F4;" points="188.027,97.788 114.488,97.788 112.479,97.517 18.9,84.862 141.569,237.221 
			150.259,248.011 150.265,248.017 150.265,248.02 158.959,237.221 281.366,85.185 		"/>
		<polygon style="fill:#1399F4;" points="208.001,18.039 187.844,18.039 112.686,18.039 92.527,18.039 18.9,84.862 114.488,97.788 
			188.027,97.788 281.366,85.185 281.628,84.862 		"/>
		<g>
			<polygon style="fill:#4098F4;" points="68.363,91.551 18.9,84.862 141.569,237.221 150.259,248.011 150.259,248.006 			"/>
			<path style="fill:#1582AD;" d="M158.959,237.221L281.366,85.185l-93.339,12.603l0,0
				c-15.427,61.568-34.651,138.205-37.768,150.218l0.006,0.011v0.004L158.959,237.221z"/>
			<path style="fill:#4098F4;" d="M158.959,237.221L281.366,85.185l-43.177,5.829c0,0-84.813,144.979-87.931,156.992l0.006,0.011
				v0.004L158.959,237.221z"/>
			<polygon style="fill:#50A3F3;" points="150.259,248.011 150.265,248.017 150.259,248.006 			"/>
		</g>
		<path style="fill:#50A3F3;" d="M150.259,248.006c0,0.005-37.779-150.489-37.779-150.489l-10.521,90.508L150.259,248.006z"/>
		<polygon style="fill:#3F81C0;" points="150.259,248.006 188.027,97.788 200.213,185.98 		"/>
		<polygon style="fill:#1399F4;" points="18.9,84.862 149.666,129.497 281.366,85.185 188.027,97.788 112.479,97.517 		"/>
		<polygon style="fill:#1078C0;" points="196.34,63.874 187.844,19.262 112.686,19.262 101.106,63.029 18.9,86.084 114.488,99.011 
			188.027,99.011 281.366,86.407 281.628,86.084 		"/>
		<polygon style="fill:#747BFC;" points="94.228,20.484 112.479,97.517 188.027,97.788 205.105,20.484 		"/>
		<polygon style="fill:#4098F4;" points="92.527,18.039 68.363,91.551 146.598,20.484 224.826,91.551 208.001,18.039 		"/>
		<polygon style="fill:#4098F4;" points="92.527,18.039 111.067,91.563 146.598,20.484 183.362,91.551 208.001,18.039 		"/>
		<polygon style="fill:#F7F7F7;" points="193.688,97.023 278.633,85.555 194.412,91.44 201.453,37.014 184.664,97.517 
			184.664,97.517 111.067,91.563 94.228,20.484 106.06,91.551 18.9,84.862 105.182,99.524 150.259,248.006 113.291,100.441 
			184.581,97.912 165.908,185.98 		"/>
		<path style="fill:#A6C3F7;" d="M23.258,84.862l67.847-62.498C91.104,22.364,70.122,59.136,23.258,84.862z"/>
		<path style="fill:#A6C3F7;" d="M278.633,84.862L210.79,22.364C210.79,22.364,231.77,59.136,278.633,84.862z"/>
	</g>
</g>
</svg>
