<?xml version="1.0" encoding="utf-8"?>
<!-- Generator: Adobe Illustrator 27.5.0, SVG Export Plug-In . SVG Version: 6.00 Build 0)  -->
<svg version="1.1" xmlns="http://www.w3.org/2000/svg" xmlns:xlink="http://www.w3.org/1999/xlink" x="0px" y="0px"
	 viewBox="0 0 500 500" style="enable-background:new 0 0 500 500;" xml:space="preserve">
<g id="BACKGROUND">
	<rect style="fill:#FFFFFF;" width="500" height="500"/>
</g>
<g id="OBJECTS">
	<g>
		<path style="fill:#E8BCA1;" d="M314.161,143.378c0,0-0.149-9.954-1.623-15.256c-1.474-5.302-4.629-8.947-2.15-12.016
			c2.479-3.069,5.794,4.577,6.973,7.106c0,0,0.354-9.856-0.113-14.962c-0.467-5.106,2.405-5.904,3.902-3.941
			c0,0,0.306-3.179,2.577-3.572c2.271-0.393,3.413,2.859,3.413,2.859s2.565-1.903,4.284-0.001c1.719,1.902,2.456,4.553,2.456,4.553
			s2.737,0.429,3.732,2.295c0.995,1.865-0.794,22.83-8.844,34.111C320.717,155.835,314.161,143.378,314.161,143.378z"/>
		<path style="fill:#784544;" d="M213.795,155.781c-49.463,11.157-45.529,69.256-35.91,95.547
			c9.619,26.291-3.206,35.59,2.244,48.735c5.451,13.146-12.505,28.215,5.451,49.377c17.955,21.161,77.592,25.65,96.829,7.054
			c19.238-18.596,16.993-77.912,9.298-94.585c-7.695-16.673-12.825-28.536-16.031-55.148
			C272.47,180.149,256.438,146.163,213.795,155.781z"/>
		<path style="fill:#3F3E4C;" d="M217.982,412.214c0,0-4.234,22.471,0,40.586c3.635,15.551,10.386,36.163,12.225,47.2h85.765
			c0.444-18.475,1.736-81.695-1.07-92.831C311.609,394.099,217.982,412.214,217.982,412.214z"/>
		<path style="fill:#8ABBE4;" d="M272.173,254.685c10.777-5.045,25.452-43.796,28.662-55.261
			c3.21-11.465,10.548-53.885,11.694-57.096c1.147-3.21,17.656,0.688,18.573,2.752c0.917,2.064-2.752,48.841-5.733,60.994
			c-2.981,12.153-13.987,50.446-26.14,62.828c-12.153,12.382-29.58,10.319-29.58,9.631S272.173,254.685,272.173,254.685z"/>
		<path style="fill:#8ABBE4;" d="M232.733,268.443c-7.337,3.898-8.484,9.401-8.713,18.573c-0.229,9.172,12.382,43.796,8.255,62.599
			c-4.127,18.802-19.72,64.204-19.72,64.204s23.389,7.108,54.803,7.108c31.414,0,53.885-14.675,53.198-14.446
			c-0.688,0.229-16.896-39.476-18.344-65.35c-1.834-32.79,10.777-31.873,0.229-63.057c-4.582-13.547-4.127-19.032-4.127-19.032
			s-7.796-9.401-26.14-4.357C253.829,259.729,232.733,268.443,232.733,268.443z"/>
		<path style="fill:#E8BCA1;" d="M234.033,242.226c0,0,9.631,17.885-1.299,26.217c0,0,13.987,6.191,26.828,0.459
			c12.841-5.732,12.611-14.217,12.611-14.217s-3.669,0.917-8.026-0.688c-4.357-1.605-8.943-13.987-8.943-13.987L234.033,242.226z"/>
		<path style="fill:#E8BCA1;" d="M355.491,200.363c0,0,1.872-9.778,1.504-15.269c-0.368-5.491-2.719-9.7,0.331-12.202
			s4.746,5.657,5.388,8.371c0,0,2.345-9.58,2.922-14.674c0.578-5.095,3.552-5.294,4.62-3.068c0,0,0.945-3.051,3.248-2.976
			c2.303,0.075,2.762,3.492,2.762,3.492s2.897-1.343,4.195,0.868c1.297,2.211,1.482,4.956,1.482,4.956s2.593,0.975,3.189,3.003
			c0.596,2.028-5.406,22.195-15.575,31.61C359.386,213.891,355.491,200.363,355.491,200.363z"/>
		<path style="fill:#E8BCA1;" d="M206.937,215.819c0,0-9.745,4.127-6.42,12.726c3.325,8.599,13.529,5.503,13.529,5.503
			s20.178,23.159,42.077,10.662s6.076-48.726,0.115-57.783c0,0-16.166,0.917-26.828-6.191
			C229.408,180.736,221.842,204.239,206.937,215.819z"/>
		<path style="fill:#8ABBE4;" d="M244.694,271.914c-17.784,5.92-15.106,38.832,7.071,37.115s68.221-28.147,85.94-38.068
			c17.72-9.922,35.101-62.566,35.115-65.785c0.014-3.218-15.645-9.588-18.1-8.504s-31.089,49.493-37.326,52.439
			C311.158,252.058,267.174,264.431,244.694,271.914z"/>
		<path style="fill:#6993BC;" d="M314.666,249.535c-0.627,0.089-1.259,0.059-1.871,0.227c-0.602,0.165-1.209,0.279-1.805,0.466
			c-1.186,0.373-2.372,0.747-3.558,1.122c-2.372,0.749-4.743,1.498-7.115,2.25c-4.742,1.503-9.482,3.012-14.22,4.527
			c-4.738,1.515-9.477,3.029-14.209,4.564c-1.173,0.381-2.351,0.757-3.485,1.245c0.599-0.98,1.17-1.98,1.678-3.002
			c0.408-0.82,0.786-1.654,1.142-2.497c0.374-0.884,0.838-1.819,0.924-2.784c0.074-0.831-1.034-0.94-1.428-0.387
			c-0.458,0.643-0.696,1.481-1.015,2.201c-0.342,0.771-0.705,1.533-1.09,2.284c-0.757,1.476-1.57,2.92-2.474,4.312
			c-0.105,0.162-0.232,0.363-0.344,0.578c-0.339,0.111-0.677,0.231-1.011,0.339c-2.366,0.768-4.731,1.537-7.096,2.307
			c-2.68,0.874-5.36,1.749-8.039,2.626c-1.3,0.426-2.601,0.853-3.895,1.298c-0.356,0.122-0.718,0.25-1.079,0.385
			c-0.609-0.728-1.895-0.707-2.755-0.834c-1.085-0.16-2.159-0.392-3.215-0.688c-1.053-0.295-2.095-0.641-3.112-1.045
			c-0.979-0.388-2-1.018-3.059-1.11c-0.342-0.03-0.601,0.425-0.405,0.705c0.624,0.891,1.777,1.404,2.738,1.852
			c1.059,0.494,2.15,0.921,3.27,1.255c1.084,0.323,2.189,0.576,3.306,0.756c0.28,0.045,0.629,0.11,0.996,0.158
			c-0.194,0.117-0.392,0.228-0.573,0.359c-0.368,0.267-0.272,0.905,0.244,0.903c1.226-0.007,2.378-0.348,3.559-0.661
			c1.199-0.317,2.379-0.734,3.558-1.118c2.404-0.783,4.808-1.569,7.212-2.351c2.365-0.769,4.731-1.537,7.097-2.303
			c1.176-0.381,2.404-0.697,3.55-1.16c0.599-0.242,1.096-0.548,1.74-0.688c0.61-0.133,1.206-0.289,1.803-0.474
			c9.542-2.956,19.029-6.095,28.551-9.115c2.687-0.852,5.375-1.702,8.063-2.55c1.305-0.412,2.609-0.823,3.914-1.233
			c0.68-0.214,1.327-0.474,1.992-0.725c0.691-0.26,1.278-0.654,1.937-0.987C315.696,250.235,315.232,249.454,314.666,249.535z"/>
		<path style="fill:#6993BC;" d="M301.547,289.581c-0.558-0.013-1.128-0.065-1.683-0.002c-0.609,0.07-1.222,0.184-1.82,0.314
			c-1.159,0.253-2.318,0.511-3.475,0.773c-2.314,0.525-4.625,1.068-6.931,1.629c-4.572,1.113-9.127,2.298-13.662,3.554
			c-8.676,2.403-17.436,5.543-26.546,5.52c-2.312-0.006-4.61-0.217-6.885-0.627c-1.169-0.21-2.334-0.473-3.473-0.806
			c-1.137-0.333-2.246-0.706-3.413-0.905c-0.205-0.035-0.377,0.199-0.213,0.366c1.052,1.066,2.454,1.759,3.887,2.286
			c-0.057,0.033-0.118,0.061-0.175,0.094c-0.372,0.218-0.746,0.438-1.094,0.693c-0.231,0.169-0.439,0.333-0.594,0.573
			c-0.08,0.124-0.213,0.506-0.058,0.634c0.221,0.183,0.42,0.255,0.71,0.23c0.231-0.02,0.441-0.094,0.656-0.178
			c0.436-0.17,0.866-0.367,1.286-0.573c0.386-0.188,0.775-0.389,1.145-0.606c0.093-0.054,0.169-0.13,0.254-0.196
			c1.887,0.521,3.832,0.8,5.785,0.93c4.472,0.297,8.985-0.305,13.352-1.238c4.571-0.976,9.043-2.354,13.538-3.625
			c4.646-1.315,9.313-2.555,13.999-3.719c2.621-0.651,5.248-1.279,7.88-1.883c1.316-0.302,2.633-0.598,3.952-0.888
			c0.641-0.141,1.274-0.289,1.906-0.465c0.692-0.192,1.311-0.519,1.959-0.823C302.372,290.391,302.074,289.593,301.547,289.581z"/>
		<path style="fill:#6993BC;" d="M372.557,204.102c-0.58-0.646-1.357-1.171-2.044-1.697c-0.695-0.532-1.406-1.042-2.134-1.526
			c-1.426-0.949-2.914-1.805-4.452-2.559c-1.589-0.779-3.235-1.489-4.949-1.943c-0.882-0.234-1.789-0.388-2.7-0.459
			c-0.855-0.066-1.898-0.146-2.666,0.288c-0.644,0.364-0.482,1.339,0.202,1.542c0.772,0.229,1.662,0.056,2.464,0.13
			c0.808,0.074,1.61,0.254,2.391,0.473c1.614,0.452,3.153,1.126,4.646,1.88c1.432,0.723,2.819,1.534,4.151,2.427
			c0.666,0.447,1.32,0.912,1.956,1.4c0.661,0.507,1.27,1.104,1.962,1.566C372.336,206.26,373.263,204.888,372.557,204.102z"/>
		<path style="fill:#6993BC;" d="M330.923,144.667c-2.882-1.487-5.964-2.602-9.146-3.238c-1.574-0.315-3.18-0.512-4.783-0.603
			c-0.814-0.046-1.639-0.062-2.452,0c-0.362,0.028-0.731,0.065-1.087,0.139c-0.202,0.042-0.438,0.095-0.627,0.181
			c-0.181,0.082-0.277,0.213-0.445,0.318c-0.176,0.111-0.215,0.419,0,0.519c0.313,0.146,0.506,0.292,0.861,0.356
			c0.391,0.071,0.79,0.107,1.186,0.135c0.78,0.055,1.561,0.087,2.341,0.146c1.516,0.116,3.01,0.334,4.498,0.646
			c3.02,0.633,5.932,1.658,8.668,3.086C331.051,146.934,332.04,145.243,330.923,144.667z"/>
		<path style="fill:#6993BC;" d="M319.244,405.626c-1.616,0.238-2.934,1.117-4.43,1.736c-1.59,0.657-3.152,1.368-4.759,1.985
			c-3.329,1.277-6.681,2.513-10.04,3.709c-6.9,2.456-13.938,4.414-21.2,5.438c-14.254,2.01-28.979,1.119-43.147-1.134
			c-4.072-0.648-8.112-1.464-12.172-2.173c-3.925-0.685-7.965-1.79-11.96-1.861c-0.699-0.013-1.008,1.013-0.365,1.347
			c3.255,1.688,7.006,2.51,10.538,3.43c3.682,0.959,7.398,1.699,11.145,2.354c7.308,1.278,14.688,2.21,22.098,2.605
			c14.908,0.795,29.848-1.031,44.053-5.663c4-1.304,7.946-2.761,11.865-4.29c1.741-0.679,3.552-1.343,5.182-2.264
			c1.656-0.935,3.482-1.995,4.316-3.757C320.765,406.254,320.118,405.497,319.244,405.626z"/>
		<path style="fill:#4D4C5E;" d="M245.946,428.19c-3.228,1.548-6.133,3.719-9.367,5.295c-1.536,0.749-3.117,1.351-4.734,1.9
			c-0.855,0.29-1.703,0.619-2.552,0.929c-0.559,0.204-1.064,0.397-1.484,0.692c-0.013-2.189,0.02-4.377,0.033-6.568
			c0.015-2.622,0.555-5.701-0.275-8.225c-0.072-0.22-0.376-0.274-0.5-0.065c-1.189,2.001-1.245,4.664-1.497,6.93
			c-0.285,2.566-0.416,5.14-0.488,7.72c-0.142,5.063-0.072,10.16,0.403,15.205c0.959,10.199,3.069,20.198,6.07,29.988
			c0.821,2.679,1.721,5.334,2.697,7.96c0.822,2.211,1.571,5.851,3.95,6.848c0.404,0.169,0.807-0.188,0.937-0.532
			c0.782-2.065-0.974-4.823-1.705-6.724c-0.898-2.334-1.735-4.691-2.51-7.068c-1.53-4.689-2.785-9.444-3.762-14.278
			c-1.891-9.354-3.027-18.889-3.307-28.433c0.081,0.056,0.166,0.106,0.258,0.132c0.301,0.083,0.585,0.048,0.887,0.026
			c1.057-0.077,2.084-0.329,3.101-0.619c1.966-0.561,3.887-1.529,5.682-2.498c3.415-1.844,7.075-4.326,8.992-7.786
			C247.082,428.463,246.479,427.934,245.946,428.19z"/>
		<path style="fill:#4D4C5E;" d="M285.09,471.866c-0.203-8.838-0.604-17.709-1.911-26.458c-0.034-0.225-0.377-0.159-0.384,0.052
			c-0.27,8.889-0.337,17.771-0.855,26.653c-0.259,4.443-0.506,8.882-0.831,13.321c-0.156,2.127-0.342,4.271-0.382,6.403
			c-0.038,2.016-0.361,4.502,0.446,6.385c0.308,0.718,1.294,0.521,1.653,0c0.574-0.835,0.774-2.022,0.986-3.01
			c0.237-1.108,0.364-2.258,0.519-3.381c0.291-2.111,0.412-4.269,0.515-6.398C285.064,480.927,285.194,476.376,285.09,471.866z"/>
		<path style="fill:#4D4C5E;" d="M313.659,427.588c-0.447-1.037-1.656-1.675-2.571-2.268c-0.224-0.145-0.441-0.299-0.657-0.456
			c-0.009-0.007-0.01-0.007-0.018-0.013c-0.012-0.01-0.016-0.014-0.031-0.027c-0.103-0.085-0.206-0.17-0.307-0.257
			c-0.389-0.336-0.74-0.704-1.101-1.069c-0.358-0.363-0.722-0.714-1.053-1.103c-0.063-0.074-0.124-0.15-0.185-0.225
			c-0.019-0.024-0.091-0.116-0.136-0.177c-0.145-0.198-0.283-0.4-0.416-0.607c-0.276-0.428-0.511-0.876-0.798-1.296
			c-0.147-0.215-0.273-0.445-0.42-0.66c-0.119-0.174-0.252-0.314-0.436-0.424c-0.046-0.034-0.103-0.048-0.155-0.071
			c-0.015-0.012-0.038-0.03-0.07-0.054c-0.293-0.236-0.834-0.287-1.026,0.132c-0.027,0.058-0.053,0.117-0.079,0.176
			c0.082-0.084,0.073-0.066-0.027,0.052c-0.142,0.241-0.256,0.45-0.267,0.747c-0.009,0.249,0.027,0.512,0.053,0.76
			c0.067,0.641,0.222,1.209,0.462,1.804c0.494,1.23,1.102,2.429,1.946,3.459c0.771,0.941,1.748,1.738,2.744,2.428
			c0.56,0.388,1.192,0.702,1.848,0.896c0.787,0.233,1.546,0.218,2.281-0.145C313.854,428.887,313.894,428.135,313.659,427.588z"/>
		<path style="fill:#A4D0F0;" d="M284.364,252.506c-0.098-0.384-0.288-0.748-0.473-1.098c-0.182-0.343-0.4-0.636-0.677-0.907
			c-0.146-0.143-0.303-0.318-0.479-0.421c-0.288-0.169-0.79-0.176-1.03,0.098c-0.061,0.07-0.125,0.136-0.172,0.217
			c-0.142,0.243-0.105,0.44-0.085,0.702c-0.003-0.023-0.006-0.043-0.013-0.093c0.005,0.037,0.009,0.074,0.014,0.111
			c0.008,0.075,0.016,0.15,0.023,0.224c0.02,0.219,0.028,0.44,0.083,0.655c0.036,0.14,0.076,0.278,0.11,0.418
			c0.068,0.284,0.12,0.566,0.208,0.844c0.044,0.139,0.081,0.279,0.133,0.415c0.136,0.359,0.289,0.581,0.608,0.81
			c0.046,0.033,0.092,0.065,0.138,0.098c0.207,0.151,0.605,0.187,0.843,0.11c0.271-0.088,0.506-0.252,0.654-0.503
			c0.167-0.286,0.279-0.577,0.257-0.916C284.489,253.012,284.428,252.757,284.364,252.506z"/>
		<g>
			<g>
				<path style="fill:#A4D0F0;" d="M292.367,243.13c-0.022-0.028-0.038-0.055-0.059-0.083c-0.009-0.014-0.025-0.021-0.033-0.036
					C292.323,243.074,292.344,243.101,292.367,243.13z"/>
				<path style="fill:#A4D0F0;" d="M292.367,243.13c0.003,0.004,0.006,0.009,0.01,0.013
					C292.417,243.195,292.404,243.179,292.367,243.13z"/>
				<path style="fill:#A4D0F0;" d="M298.073,242.632c-0.219-0.393-0.474-0.724-0.878-0.957c-0.155-0.089-0.315-0.171-0.474-0.25
					c-0.498-0.249-0.978-0.393-1.518-0.497c-0.523-0.101-0.991-0.088-1.512-0.036c-0.384,0.038-0.703,0.093-1.035,0.292
					c-0.208,0.124-0.367,0.273-0.51,0.452c-0.009,0.005-0.017,0.01-0.026,0.016c-0.311,0.188-0.379,0.633-0.115,0.894
					c0.005,0.005,0.01,0.011,0.016,0.016c0.074,0.173,0.168,0.334,0.287,0.488c0.084,0.141,0.187,0.264,0.324,0.353
					c0.106,0.082,0.205,0.158,0.319,0.226c0.309,0.186,0.596,0.417,0.924,0.566c0.445,0.203,0.865,0.44,1.331,0.598
					c0.169,0.057,0.336,0.119,0.503,0.183c0.33,0.127,0.632,0.128,0.969,0.092c0.584-0.063,1.084-0.269,1.396-0.8
					C298.369,243.758,298.356,243.14,298.073,242.632z"/>
			</g>
		</g>
		<path style="fill:#A4D0F0;" d="M310.898,234.752c-0.034-0.268-0.034-0.568-0.115-0.819c-0.046-0.143-0.108-0.283-0.161-0.424
			c-0.088-0.231-0.166-0.526-0.291-0.727c-0.075-0.121-0.165-0.236-0.247-0.353c-0.173-0.248-0.336-0.488-0.611-0.638
			c-0.22-0.12-0.482-0.221-0.738-0.202c-0.337,0.026-0.607,0.139-0.816,0.41c-0.11,0.143-0.169,0.285-0.194,0.435
			c-0.039,0.093-0.073,0.187-0.093,0.289c-0.024,0.122-0.05,0.244-0.073,0.367c-0.045,0.242-0.065,0.471-0.053,0.714
			c0.007,0.137,0.013,0.274,0.02,0.411c0.046,0.926,0.39,2.044,1.209,2.566c0.286,0.182,0.754,0.245,1.077,0.141
			c0.358-0.116,0.625-0.327,0.835-0.642c0.146-0.219,0.186-0.449,0.232-0.696C310.937,235.254,310.936,235.057,310.898,234.752z"/>
		<path style="fill:#A4D0F0;" d="M301.832,218.299c-0.016-0.149-0.033-0.298-0.052-0.447c-0.016-0.123-0.033-0.246-0.049-0.369
			c-0.053-0.134-0.108-0.267-0.167-0.399c-0.024-0.055-0.048-0.111-0.072-0.166c-0.134-0.305-0.256-0.625-0.522-0.843
			c-0.364-0.298-0.925-0.39-1.28,0c-0.278,0.305-0.384,0.659-0.511,1.04c-0.086,0.256-0.15,0.455-0.174,0.736
			c-0.013,0.149-0.018,0.298-0.03,0.447c-0.022,0.302-0.055,0.592-0.031,0.894c0.019,0.25,0.048,0.493,0.135,0.728
			c0.125,0.34,0.266,0.59,0.515,0.803c0.191,0.233,0.446,0.404,0.767,0.404c0.166,0,0.369-0.062,0.51-0.145
			c0.111-0.065,0.195-0.152,0.271-0.246c0.194-0.148,0.359-0.326,0.457-0.558c0.062-0.147,0.133-0.293,0.184-0.444
			c0.055-0.161,0.054-0.335,0.073-0.503C301.895,218.915,301.866,218.617,301.832,218.299z"/>
		<path style="fill:#A4D0F0;" d="M316.882,211.723c-0.236-0.208-0.44-0.411-0.761-0.483c-0.304-0.069-0.643-0.069-0.953-0.097
			c-0.488-0.044-0.983,0.03-1.47,0.057c-0.26,0.014-0.521,0.013-0.781,0.025c-0.264,0.012-0.522,0.07-0.783,0.11
			c-0.246,0.038-0.523,0.03-0.736,0.17c-0.13,0.086-0.331,0.276-0.275,0.453c0.079,0.249,0.19,0.416,0.421,0.547
			c0.184,0.105,0.384,0.191,0.576,0.28c0.485,0.224,0.978,0.328,1.502,0.42c0.622,0.109,1.21,0.18,1.838,0.087
			c0.219-0.032,0.449-0.056,0.663-0.111c0.353-0.092,0.548-0.306,0.761-0.573C317.081,212.356,317.158,211.966,316.882,211.723z"/>
		<path style="fill:#A4D0F0;" d="M310.284,196.002c-0.059-0.245-0.108-0.498-0.188-0.737c-0.098-0.292-0.285-0.557-0.435-0.824
			c-0.134-0.24-0.252-0.531-0.504-0.67c-0.157-0.087-0.348-0.144-0.5-0.026c-0.394,0.307-0.384,0.791-0.486,1.247
			c-0.118,0.524-0.085,1.029-0.077,1.561c0.004,0.237-0.002,0.474,0.006,0.711c0.008,0.212,0.049,0.42,0.075,0.63
			c-0.005-0.041-0.011-0.081-0.016-0.122c0.018,0.141,0.037,0.283,0.057,0.424c0.047,0.193,0.141,0.372,0.221,0.554
			c0.016,0.037,0.019,0.043,0.024,0.054c0.004,0.011,0.006,0.015,0.02,0.049c0.134,0.323,0.242,0.614,0.489,0.87
			c0.358,0.371,0.895,0.225,1.165-0.15c0.179-0.247,0.235-0.522,0.304-0.813c0.078-0.326,0.163-0.65,0.152-0.988
			C310.573,197.168,310.425,196.586,310.284,196.002z"/>
		<path style="fill:#A4D0F0;" d="M321.281,188.627c-0.281-0.071-0.546-0.037-0.805,0.092c-0.07,0.035-0.138,0.077-0.207,0.115
			c-0.138,0.077-0.277,0.152-0.414,0.231c-0.339,0.196-0.635,0.504-0.932,0.76c-0.233,0.202-0.411,0.495-0.6,0.739
			c-0.147,0.19-0.334,0.379-0.401,0.612c-0.043,0.148-0.036,0.312-0.041,0.466c-0.005,0.167,0.124,0.336,0.287,0.377
			c0.142,0.035,0.289,0.082,0.437,0.087c0.201,0.006,0.376-0.083,0.556-0.157c0.138-0.056,0.275-0.113,0.413-0.17
			c0.213-0.088,0.443-0.158,0.635-0.286c0.32-0.213,0.679-0.412,0.958-0.678c0.114-0.108,0.222-0.225,0.332-0.337
			c0.055-0.056,0.113-0.111,0.166-0.168c0.201-0.218,0.307-0.466,0.314-0.764C321.99,189.137,321.678,188.727,321.281,188.627z"/>
		<path style="fill:#A4D0F0;" d="M314.369,176.844c-0.021-0.163-0.026-0.367-0.069-0.516c-0.045-0.156-0.118-0.309-0.178-0.461
			c-0.157-0.396-0.373-0.764-0.574-1.139c-0.104-0.194-0.205-0.378-0.345-0.55c-0.109-0.134-0.225-0.263-0.338-0.393
			c-0.097-0.112-0.194-0.223-0.292-0.335c-0.061-0.07-0.12-0.145-0.201-0.192c-0.113-0.066-0.234-0.053-0.353-0.094
			c-0.067-0.023-0.141,0.016-0.176,0.072l-0.056,0.088c-0.113,0.094-0.183,0.243-0.19,0.379c-0.015,0.31-0.031,0.62-0.045,0.931
			c-0.016,0.372,0.065,0.734,0.13,1.1c0.135,0.766,0.274,1.572,0.841,2.154c0.306,0.315,0.796,0.393,1.192,0.225
			c0.427-0.18,0.625-0.551,0.671-0.997C314.396,177.023,314.381,176.937,314.369,176.844z"/>
		<path style="fill:#A4D0F0;" d="M323.798,167.366c-0.066-0.204-0.192-0.398-0.386-0.502c-0.143-0.077-0.267-0.106-0.415-0.147
			c-0.277-0.077-0.475-0.04-0.754-0.001c0.093-0.012,0.186-0.025,0.278-0.037c-0.177,0.022-0.351,0.023-0.528,0.031
			c-0.221,0.01-0.439,0.071-0.657,0.11c-0.032,0.003-0.063,0.007-0.095,0.01c-0.248,0.016-0.397,0.056-0.623,0.155
			c0.072-0.03,0.143-0.061,0.215-0.091c-0.203,0.085-0.417,0.139-0.618,0.229c-0.288,0.129-0.348,0.543-0.207,0.791
			c0.134,0.236,0.413,0.516,0.645,0.656c0.246,0.15,0.58,0.219,0.864,0.264c0.141,0.023,0.286,0.059,0.427,0.058
			c0.128-0.001,0.259-0.022,0.387-0.044c0.127-0.022,0.252-0.051,0.376-0.086c0.248-0.071,0.494-0.159,0.683-0.344
			c0.112-0.11,0.265-0.267,0.324-0.404C323.802,167.806,323.872,167.594,323.798,167.366z"/>
		<path style="fill:#A4D0F0;" d="M318.969,155.24c-0.052-0.384-0.11-0.737-0.24-1.103c-0.137-0.387-0.267-0.769-0.495-1.113
			c-0.102-0.154-0.197-0.312-0.341-0.432c-0.128-0.107-0.264-0.206-0.397-0.307c-0.063-0.047-0.153,0.005-0.172,0.07
			c-0.047,0.16-0.109,0.32-0.148,0.482c-0.044,0.181-0.032,0.371-0.037,0.555c-0.006,0.214,0.016,0.411,0.05,0.623
			c0.016,0.1,0.031,0.2,0.045,0.3c0.007,0.05,0.014,0.1,0.021,0.15c-0.001-0.01-0.001-0.009-0.002-0.017
			c0.03,0.232,0.055,0.461,0.117,0.687c0.047,0.169,0.092,0.338,0.135,0.508c0.065,0.257,0.123,0.457,0.308,0.66
			c0.119,0.131,0.237,0.262,0.381,0.365c0.186,0.131,0.417,0.016,0.534-0.14c0.091-0.121,0.142-0.28,0.201-0.418
			C319.063,155.798,319.013,155.561,318.969,155.24z"/>
		<path style="fill:#A4D0F0;" d="M358.659,209.808c-0.003-0.134-0.033-0.273-0.049-0.406c-0.045-0.368-0.08-0.726-0.202-1.077
			c-0.081-0.231-0.161-0.463-0.242-0.694c-0.196-0.563-0.431-1.089-0.705-1.618c-0.152-0.293-0.324-0.5-0.579-0.706
			c-0.193-0.156-0.378-0.28-0.591-0.402c-0.13-0.074-0.297-0.03-0.374,0.098c-0.128,0.211-0.229,0.412-0.322,0.643
			c-0.045,0.111-0.101,0.224-0.133,0.34c-0.052,0.189-0.033,0.383-0.027,0.575c0.007,0.236,0.008,0.474,0.022,0.71
			c0.02,0.356,0.098,0.71,0.16,1.061c0.042,0.242,0.085,0.484,0.127,0.726c0.05,0.287,0.145,0.531,0.255,0.799
			c0.173,0.423,0.335,0.891,0.77,1.117c-0.132-0.099-0.151-0.099-0.057-0.002c0.084,0.083,0.178,0.151,0.282,0.204
			c0.233,0.126,0.51,0.177,0.769,0.106c0.252-0.069,0.459-0.246,0.597-0.464c0.066-0.098,0.115-0.205,0.148-0.32
			c0.034-0.132,0.018-0.121-0.049,0.033l0.125-0.295C358.636,210.101,358.661,209.958,358.659,209.808z"/>
		<path style="fill:#A4D0F0;" d="M364.664,218.12c-0.064-0.039-0.128-0.077-0.192-0.116c-0.334-0.2-0.628-0.22-1.005-0.148
			c-0.15,0.029-0.299,0.061-0.449,0.091c-0.249,0.05-0.469,0.171-0.691,0.288c-0.141,0.074-0.281,0.148-0.422,0.222
			c-0.225,0.119-0.414,0.291-0.609,0.454c-0.118,0.099-0.245,0.192-0.356,0.298c-0.112,0.106-0.2,0.239-0.294,0.36
			c-0.16,0.206-0.278,0.387-0.314,0.654c-0.033,0.243-0.001,0.514,0.135,0.727c0.29,0.45,0.769,0.623,1.287,0.524
			c0.086-0.017,0.172-0.033,0.257-0.049c0.186-0.036,0.312-0.098,0.5-0.178c0.147-0.063,0.294-0.126,0.441-0.189
			c0.175-0.075,0.319-0.156,0.474-0.266c0.13-0.092,0.26-0.184,0.39-0.276c0.149-0.105,0.308-0.201,0.426-0.342
			c0.043-0.051,0.083-0.104,0.124-0.156c0.197-0.248,0.449-0.493,0.535-0.804C364.988,218.894,364.968,218.303,364.664,218.12z"/>
		<path style="fill:#A4D0F0;" d="M350.599,219.746c-0.009-0.077-0.012-0.267-0.015-0.386c-0.006-0.215-0.276-0.341-0.433-0.18
			c-0.192,0.197-0.404,0.378-0.589,0.581c-0.129,0.141-0.232,0.316-0.338,0.475c-0.112,0.166-0.199,0.319-0.27,0.51
			c-0.105,0.286-0.198,0.577-0.285,0.869c-0.151,0.504-0.055,1.279,0.489,1.508c0.162,0.068,0.33,0.081,0.501,0.034
			c0.235-0.065,0.369-0.218,0.502-0.41c0.12-0.172,0.237-0.338,0.28-0.549c0.061-0.299,0.099-0.604,0.16-0.903
			c0.07-0.342,0.075-0.699,0.065-1.047C350.661,220.079,350.617,219.913,350.599,219.746z"/>
		<path style="fill:#A4D0F0;" d="M344.152,232.789c-0.063-0.226-0.178-0.422-0.343-0.589c-0.049-0.054-0.101-0.105-0.151-0.157
			c-0.187-0.195-0.399-0.313-0.632-0.433c-0.132-0.068-0.263-0.139-0.396-0.204c-0.234-0.114-0.429-0.158-0.673-0.211
			c-0.276-0.06-0.553-0.129-0.832-0.175c-0.239-0.04-0.44-0.005-0.667,0.049c-0.096,0.023-0.189,0.047-0.279,0.083l-0.091-0.019
			c-0.135-0.028-0.295,0.124-0.199,0.258c0.023,0.033,0.046,0.065,0.07,0.097c0.003,0.107,0.025,0.214,0.044,0.318
			c0.031,0.171,0.056,0.334,0.14,0.49c0.127,0.236,0.326,0.455,0.485,0.671c0.128,0.176,0.26,0.405,0.417,0.542
			c0.11,0.096,0.228,0.184,0.341,0.275c0.057,0.046,0.114,0.092,0.17,0.138c0.109,0.089,0.22,0.175,0.333,0.259
			c0.119,0.057,0.241,0.108,0.365,0.152c0.33,0.123,0.652,0.189,1.007,0.081c0.271-0.083,0.495-0.237,0.668-0.461
			c0.156-0.202,0.311-0.514,0.276-0.779C344.187,233.048,344.17,232.918,344.152,232.789z"/>
		<g>
			<g>
				<path style="fill:#A4D0F0;" d="M351.882,237.315c-0.013-0.118-0.027-0.236-0.038-0.355c-0.012-0.129-0.012-0.276-0.045-0.398
					c-0.035-0.124-0.104-0.228-0.189-0.323c-0.003-0.003-0.007-0.009-0.023-0.033c-0.142-0.201-0.409-0.365-0.666-0.271
					c-0.04,0.014-0.077,0.034-0.116,0.051c-0.15,0.033-0.293,0.085-0.404,0.207c-0.08,0.087-0.147,0.189-0.218,0.283
					c-0.101,0.132-0.198,0.267-0.296,0.401c-0.083,0.114-0.168,0.227-0.251,0.342c-0.151,0.209-0.231,0.459-0.312,0.702
					c-0.136,0.408-0.241,0.789-0.278,1.223c-0.023,0.272-0.046,0.526,0.037,0.798c0.046,0.151,0.11,0.299,0.168,0.447
					c0.167,0.429,0.457,0.742,0.936,0.807c0.46,0.062,0.869-0.154,1.122-0.538c0.182-0.275,0.369-0.525,0.451-0.853
					c0.081-0.323,0.142-0.653,0.16-0.986c0.013-0.228,0.033-0.456,0.051-0.684C351.992,237.864,351.929,237.586,351.882,237.315z"/>
				<path style="fill:#A4D0F0;" d="M351.583,236.193c0.013,0.013,0.015,0.032,0.027,0.046
					C351.614,236.243,351.608,236.233,351.583,236.193z"/>
			</g>
		</g>
		<path style="fill:#A4D0F0;" d="M240.334,278.86c-0.102-0.359-0.342-0.765-0.59-1.038c-0.073-0.081-0.145-0.163-0.223-0.238
			c-0.156-0.15-0.331-0.247-0.511-0.357c-0.166-0.102-0.331-0.206-0.494-0.314c-0.038-0.025-0.075-0.051-0.113-0.075
			c-0.226-0.143-0.395-0.161-0.652-0.189c-0.071-0.008-0.142-0.015-0.213-0.024c-0.21-0.026-0.517,0.12-0.656,0.272
			c-0.171,0.186-0.259,0.401-0.272,0.656c-0.004,0.082-0.011,0.165-0.01,0.247c0.003,0.286,0.11,0.521,0.236,0.766
			c0.094,0.182,0.192,0.363,0.292,0.542c0.104,0.185,0.201,0.358,0.353,0.515c0.071,0.073,0.149,0.139,0.225,0.207
			c0.166,0.145,0.318,0.263,0.514,0.349c0.177,0.078,0.381,0.196,0.562,0.232c0.223,0.06,0.447,0.06,0.67,0
			c0.214-0.06,0.399-0.168,0.556-0.324C240.325,279.771,240.457,279.292,240.334,278.86z"/>
		<path style="fill:#A4D0F0;" d="M246.684,291.961c-0.041-0.025-0.136-0.067-0.209-0.098c0.181,0.074-0.206-0.088-0.146-0.063
			c-0.222-0.094-0.537-0.157-0.769-0.148c-0.353,0.013-0.71,0.111-1.061,0.164c-0.277,0.035-0.553,0.073-0.825,0.151
			c-0.263,0.075-0.53,0.138-0.8,0.188c-0.21,0.039-0.383,0.078-0.581,0.17c-0.112,0.052-0.219,0.115-0.329,0.171
			c-0.146,0.074-0.276,0.159-0.39,0.279c-0.049,0.051-0.155,0.225-0.222,0.234c-0.172,0.025-0.181,0.28-0.047,0.357l0.011,0.006
			c0.073,0.187,0.158,0.374,0.294,0.521c0.161,0.175,0.407,0.335,0.615,0.457c0.249,0.146,0.499,0.188,0.775,0.228
			c0.317,0.047,0.635,0.089,0.955,0.113c0.548,0.041,1.069-0.076,1.59-0.236c0.399-0.122,0.759-0.261,1.068-0.555
			c0.247-0.235,0.413-0.513,0.52-0.835C247.272,292.651,247.04,292.18,246.684,291.961z"/>
		<path style="fill:#A4D0F0;" d="M255.2,282.366c-0.177-0.183-0.368-0.356-0.557-0.527c-0.154-0.14-0.311-0.252-0.498-0.338
			c-0.19-0.087-0.4-0.204-0.597-0.261c-0.266-0.076-0.552-0.124-0.826-0.165c-0.172-0.026-0.326-0.019-0.495,0.017
			c-0.055,0.012-0.109,0.024-0.164,0.036c-0.111,0.025-0.222,0.051-0.333,0.076c-0.174,0.039-0.215,0.232-0.152,0.373
			c0.017,0.037,0.051,0.113,0.057,0.126c-0.001-0.002,0.025,0.063,0.034,0.085c0.054,0.134,0.098,0.311,0.173,0.429
			c0.159,0.247,0.393,0.459,0.584,0.681c0.081,0.095,0.172,0.169,0.269,0.248c0.156,0.128,0.316,0.298,0.49,0.395
			c0.233,0.13,0.497,0.222,0.739,0.337c0.331,0.159,0.659,0.263,1.017,0.112c0.111-0.047,0.206-0.095,0.301-0.168
			c0.136-0.105,0.216-0.249,0.247-0.414c0.027-0.144,0.044-0.277,0.025-0.422C255.482,282.743,255.371,282.542,255.2,282.366z"/>
		<path style="fill:#A4D0F0;" d="M268.14,273.719c-0.029-0.083-0.06-0.165-0.092-0.247c-0.064-0.165-0.118-0.346-0.206-0.496
			c-0.169-0.284-0.444-0.46-0.723-0.618c-0.42-0.239-0.976-0.101-1.223,0.321c-0.114,0.194-0.244,0.368-0.306,0.592
			c-0.069,0.252-0.045,0.542-0.066,0.803c-0.007,0.079-0.021,0.16-0.023,0.239c-0.005,0.15,0.036,0.315,0.059,0.463
			c0.007,0.046,0.01,0.096,0.022,0.141c0.041,0.166,0.134,0.328,0.224,0.474c0.044,0.071,0.087,0.143,0.128,0.216
			c0.424,0.744,1.531,0.727,1.959,0c0.161-0.273,0.31-0.554,0.353-0.872C268.291,274.387,268.256,274.051,268.14,273.719z"/>
		<path style="fill:#A4D0F0;" d="M269.306,289.819c-0.074-0.176-0.147-0.354-0.258-0.511c-0.083-0.116-0.171-0.229-0.256-0.344
			c-0.147-0.197-0.285-0.439-0.461-0.601c-0.181-0.166-0.398-0.301-0.6-0.442c-0.255-0.178-0.524-0.318-0.799-0.463
			c-0.131-0.07-0.261-0.143-0.394-0.209c-0.226-0.113-0.48-0.165-0.732-0.117c-0.083-0.022-0.173-0.03-0.259-0.031
			c-0.051-0.01-0.095-0.038-0.14-0.062c-0.176-0.094-0.461,0.067-0.373,0.287c0-0.001,0.038,0.096,0.054,0.106
			c-0.006,0.061-0.031,0.165-0.031,0.176c0.003,0.068,0.016,0.137,0.031,0.206c-0.021,0.081-0.047,0.163-0.051,0.243
			c-0.01,0.215,0.078,0.402,0.154,0.594c0.132,0.333,0.248,0.683,0.407,1.004c0.172,0.347,0.369,0.715,0.65,0.982
			c0.283,0.269,0.566,0.544,0.887,0.767c0.269,0.187,0.576,0.327,0.911,0.327c0.175,0,0.356-0.042,0.523-0.097
			c0.254-0.083,0.484-0.236,0.621-0.471c0.055-0.095,0.088-0.208,0.13-0.31C269.457,290.52,269.446,290.15,269.306,289.819z"/>
		<path style="fill:#A4D0F0;" d="M281.769,279.432c-0.046-0.342-0.222-0.545-0.489-0.748c-0.438-0.333-0.952-0.267-1.464-0.238
			c-0.46,0.026-0.9,0.136-1.349,0.234c-0.351,0.077-0.691,0.201-1.034,0.309c-0.171,0.054-0.346,0.102-0.515,0.163
			c-0.27,0.098-0.456,0.275-0.672,0.452c-0.307,0.252-0.221,0.844,0.131,1.012c0.215,0.103,0.418,0.226,0.659,0.258
			c0.203,0.027,0.409,0.035,0.614,0.048c0.375,0.024,0.752,0.065,1.128,0.056c0.446-0.011,0.881-0.016,1.322-0.095
			c0.518-0.093,1.033-0.152,1.387-0.592C281.699,280.028,281.815,279.776,281.769,279.432z"/>
		<path style="fill:#A4D0F0;" d="M290.801,268.274c-0.244-0.27-0.567-0.531-0.868-0.732c-0.249-0.166-0.558-0.272-0.831-0.397
			c-0.346-0.158-0.684-0.263-1.048-0.365c-0.195-0.055-0.398-0.127-0.604-0.116c-0.135,0.007-0.274,0.036-0.408,0.053
			c-0.214,0.028-0.376,0.081-0.512,0.257c-0.118,0.152-0.188,0.378-0.117,0.569c0.04,0.108,0.079,0.216,0.121,0.324
			c0.106,0.273,0.263,0.461,0.462,0.668c0.091,0.095,0.182,0.191,0.274,0.286c0.167,0.175,0.35,0.318,0.542,0.465
			c0.233,0.178,0.461,0.382,0.708,0.54c0.194,0.124,0.467,0.199,0.687,0.291c0.144,0.06,0.282,0.113,0.434,0.151
			c0.495,0.123,1.098-0.077,1.348-0.548C291.245,269.233,291.169,268.682,290.801,268.274z"/>
		<path style="fill:#A4D0F0;" d="M299.581,278.555c-0.126-0.229-0.287-0.453-0.467-0.642c-0.127-0.134-0.296-0.208-0.469-0.263
			c-0.033-0.01-0.067-0.022-0.102-0.028c0.072,0.013,0.038,0.016,0.001-0.009c-0.024-0.016-0.049-0.032-0.074-0.047
			c-0.112-0.07-0.268-0.054-0.369,0.026c-0.114,0.091-0.139,0.21-0.119,0.349c-0.005-0.038-0.003-0.009,0,0.014
			c-0.001,0.002-0.002,0.006-0.003,0.009c-0.001,0.001,0,0-0.001,0.002c-0.001,0.001,0,0.002-0.001,0.003
			c-0.008,0.017-0.015,0.037-0.02,0.051c0.002-0.006,0.008-0.02,0.015-0.035c-0.065,0.128-0.103,0.254-0.12,0.398
			c-0.001,0.003-0.001,0.007-0.001,0.01c-0.031,0.202-0.087,0.397-0.163,0.587c-0.017,0.038-0.035,0.076-0.052,0.115
			c-0.055,0.129-0.071,0.242-0.101,0.375c-0.038,0.171-0.085,0.337-0.094,0.513c-0.017,0.375,0.176,0.651,0.404,0.915
			c0.25,0.29,0.695,0.366,1.05,0.277c0.435-0.109,0.823-0.444,0.929-0.891c0.047-0.2,0.067-0.41,0.085-0.614
			C299.941,279.279,299.767,278.892,299.581,278.555z"/>
		<path style="fill:#A4D0F0;" d="M308.839,258.205c-0.301-0.176-0.612-0.143-0.915-0.011c0.049-0.021,0.099-0.042,0.149-0.063
			l-0.149,0.063c-0.01,0.004-0.021,0.007-0.031,0.011c-0.017,0.008-0.034,0.016-0.051,0.023c-0.027,0.011-0.053,0.022-0.08,0.034
			c-0.201,0.085-0.354,0.14-0.521,0.269c-0.093,0.072-0.18,0.144-0.268,0.221c-0.289,0.254-0.601,0.489-0.807,0.819
			c-0.149,0.237-0.294,0.479-0.433,0.722c-0.172,0.3-0.329,0.64-0.329,0.99c0,0.178,0.045,0.336,0.103,0.49
			c0.002,0.077,0.004,0.155,0.005,0.232c0.011,0.485,0.508,0.955,1.014,0.772c0.101-0.036,0.205-0.078,0.31-0.11
			c0.237-0.009,0.47-0.047,0.682-0.171c0.209-0.122,0.384-0.305,0.532-0.494c0.205-0.262,0.41-0.524,0.613-0.787
			c0.252-0.326,0.371-0.789,0.515-1.179c0.123-0.334,0.105-0.673,0.126-1.021C309.322,258.691,309.111,258.365,308.839,258.205z"/>
		<path style="fill:#A4D0F0;" d="M322.004,270.797c-0.127-0.262-0.339-0.519-0.594-0.654c-0.197-0.104-0.407-0.186-0.607-0.283
			c-0.45-0.218-0.903-0.358-1.376-0.511c-0.409-0.132-0.809-0.253-1.226-0.357c-0.42-0.105-0.838-0.223-1.251-0.351
			c-0.291-0.09-0.475,0.284-0.285,0.49c0.295,0.32,0.598,0.633,0.91,0.937c0.36,0.35,0.743,0.644,1.16,0.923
			c0.186,0.125,0.374,0.247,0.563,0.366c0.24,0.151,0.512,0.241,0.778,0.336c0.208,0.075,0.42,0.163,0.635,0.216
			c0.363,0.09,0.711-0.009,1.042-0.154C322.117,271.598,322.154,271.104,322.004,270.797z"/>
		<path style="fill:#A4D0F0;" d="M326.545,258.242c-0.351,0-0.722,0.113-1.05,0.226c-0.267,0.092-0.539,0.166-0.808,0.251
			c-0.232,0.073-0.447,0.19-0.665,0.295c-0.137,0.065-0.284,0.118-0.417,0.19c-0.185,0.099-0.327,0.265-0.475,0.41
			c-0.188,0.183-0.392,0.471-0.285,0.751c0.107,0.281,0.27,0.412,0.544,0.52c0.128,0.051,0.262,0.112,0.396,0.147
			c0.323,0.084,0.688,0.02,1.014-0.017c0.233-0.026,0.443-0.056,0.661-0.134c0.138-0.05,0.276-0.102,0.413-0.156
			c0.195-0.077,0.389-0.16,0.582-0.242c0.188-0.08,0.327-0.171,0.489-0.296c0.184-0.142,0.354-0.263,0.479-0.466
			c0.114-0.188,0.212-0.404,0.224-0.624C327.676,258.512,327.04,258.242,326.545,258.242z"/>
		<path style="fill:#A4D0F0;" d="M334.109,247.218l-0.759-1.048c-0.145-0.2-0.305-0.375-0.476-0.552
			c-0.148-0.154-0.291-0.325-0.457-0.459c-0.31-0.251-0.655-0.465-0.982-0.694c-0.089-0.063-0.193,0.04-0.172,0.132
			c0.085,0.382,0.142,0.787,0.262,1.159c0.07,0.218,0.187,0.43,0.279,0.639c0.09,0.205,0.178,0.404,0.296,0.595
			c0.219,0.354,0.438,0.708,0.658,1.062c0.136,0.219,0.304,0.381,0.492,0.552c0.109,0.099,0.221,0.201,0.357,0.259
			c0.099,0.042,0.2,0.079,0.301,0.116c0.298,0.111,0.584-0.172,0.593-0.452C334.517,248.074,334.378,247.59,334.109,247.218z"/>
		<g>
			<g>
				<path style="fill:#A4D0F0;" d="M343.207,254.444c-0.081-0.398-0.337-0.75-0.667-0.981c-0.311-0.218-0.713-0.09-0.974,0.126
					c-0.065,0.054-0.111,0.13-0.162,0.196c0.038-0.05,0.061-0.079,0.077-0.099c-0.009,0.012-0.02,0.025-0.029,0.035
					c-0.09,0.106-0.188,0.213-0.253,0.335c-0.085,0.16-0.143,0.337-0.205,0.511c-0.084,0.17-0.178,0.341-0.226,0.516
					c-0.037,0.134-0.063,0.271-0.102,0.405c-0.149,0.502-0.24,1.109,0.069,1.575c0.088,0.227,0.228,0.422,0.466,0.522
					c0.267,0.113,0.515,0.078,0.76-0.023c0.264-0.061,0.488-0.178,0.69-0.4c0.034-0.038,0.068-0.076,0.101-0.115
					c0.177-0.208,0.268-0.374,0.361-0.624c0.112-0.301,0.239-0.703,0.224-1.019C343.322,255.083,343.271,254.758,343.207,254.444z"
					/>
				<path style="fill:#A4D0F0;" d="M341.481,253.685C341.503,253.657,341.516,253.64,341.481,253.685L341.481,253.685z"/>
			</g>
		</g>
		<path style="fill:#A4D0F0;" d="M232.219,285.28c-0.28-0.362-0.842-0.617-1.301-0.444c-0.074,0.028-0.149,0.054-0.224,0.081
			c-0.269,0.096-0.431,0.182-0.651,0.365c-0.057,0.048-0.115,0.094-0.172,0.141c-0.388,0.283-0.804,0.517-1.182,0.815
			c0.082-0.063,0.163-0.126,0.245-0.189c-0.136,0.105-0.275,0.207-0.419,0.302c-0.173,0.115-0.372,0.21-0.521,0.356
			c-0.057,0.068-0.112,0.139-0.165,0.211c-0.03,0.031-0.065,0.082-0.079,0.097c-0.095,0.106-0.191,0.21-0.293,0.309
			c-0.176,0.169-0.141,0.497,0.079,0.614c0.117,0.062,0.234,0.125,0.356,0.178c0.029,0.013,0.058,0.026,0.088,0.039
			c0.071,0.03,0.142,0.06,0.212,0.09c0.045,0.019,0.035,0.015-0.029-0.011c-0.179-0.061,0.138,0.063,0.098,0.047
			c0.124,0.052,0.161,0.065,0.296,0.083c0.438,0.059,0.944-0.036,1.372-0.115c0.252-0.047,0.495-0.178,0.726-0.282
			c0.159-0.071,0.314-0.148,0.467-0.232c0.161-0.088,0.32-0.181,0.473-0.283c0.234-0.155,0.424-0.328,0.58-0.563
			c0.05-0.076,0.096-0.156,0.142-0.235C232.566,286.222,232.521,285.672,232.219,285.28z"/>
		<path style="fill:#A4D0F0;" d="M240.006,315.815c-0.08-0.255-0.166-0.5-0.283-0.743c-0.133-0.278-0.28-0.55-0.432-0.819
			c-0.221-0.39-0.526-0.741-0.818-1.082c-0.295-0.345-0.655-0.565-1.047-0.782c-0.382-0.212-0.848-0.183-1.194,0.084
			c-0.338,0.261-0.501,0.71-0.385,1.13c0.107,0.392,0.188,0.756,0.386,1.119c0.148,0.27,0.27,0.557,0.422,0.824
			c0.159,0.278,0.333,0.547,0.486,0.829c0.253,0.464,0.576,1.014,1.069,1.222c0.278,0.117,0.632,0.25,0.935,0.209
			c0.408-0.055,0.6-0.395,0.76-0.729c0.111-0.233,0.201-0.467,0.201-0.73C240.107,316.168,240.06,315.985,240.006,315.815z"/>
		<path style="fill:#A4D0F0;" d="M254.906,309.197c-0.027-0.458-0.093-0.903-0.164-1.355c-0.063-0.403-0.246-0.835-0.595-1.062
			c-0.009-0.044-0.018-0.088-0.027-0.132c-0.041-0.202-0.377-0.26-0.464-0.061c-0.02,0.047-0.04,0.093-0.061,0.14
			c-0.429,0.165-0.691,0.653-0.808,1.072c-0.13,0.464-0.211,0.917-0.255,1.398c-0.018,0.196-0.034,0.392-0.048,0.588
			c-0.019,0.278,0.022,0.545,0.068,0.82c0.089,0.531,0.389,0.975,0.857,1.232c0.205,0.113,0.507,0.146,0.708,0
			c0.208-0.15,0.411-0.289,0.545-0.518c0.156-0.267,0.223-0.6,0.26-0.9C254.974,310.003,254.93,309.612,254.906,309.197z"/>
		<path style="fill:#A4D0F0;" d="M251.69,328.204c0.057-0.146,0.1-0.296,0.097-0.455c-0.003-0.16-0.044-0.319-0.085-0.473
			c-0.09-0.337-0.281-0.589-0.512-0.84c-0.273-0.297-0.611-0.516-0.938-0.749c-0.114-0.081-0.227-0.174-0.35-0.242
			c-0.192-0.105-0.411-0.161-0.619-0.225c-0.266-0.082-0.588-0.223-0.875-0.182c-0.02-0.004-0.04-0.007-0.061-0.011
			c-0.291-0.052-0.509,0.165-0.456,0.457l0.011,0.059c-0.04,0.281,0.095,0.592,0.176,0.854c0.064,0.21,0.124,0.419,0.221,0.618
			c0.066,0.133,0.166,0.253,0.252,0.374c0.226,0.319,0.44,0.654,0.728,0.919c0.054,0.049,0.106,0.101,0.161,0.149
			c0.206,0.178,0.413,0.297,0.676,0.376c0.114,0.034,0.222,0.054,0.34,0.07c0.196,0.026,0.375-0.007,0.551-0.064
			C251.36,328.836,251.655,328.55,251.69,328.204z"/>
		<path style="fill:#A4D0F0;" d="M271.503,317.565c-0.191-0.107-0.425-0.223-0.632-0.267c-0.089-0.019-0.18-0.033-0.269-0.048
			c-0.32-0.055-0.495-0.042-0.819,0.004c0.112-0.015,0.225-0.03,0.338-0.045c-0.249,0.033-0.499,0.06-0.75,0.076
			c-0.331,0.022-0.642,0.065-0.962,0.152c-0.583,0.16-1.589,0.326-1.562,1.13c0.021,0.621,0.641,0.957,1.173,1.102
			c0.413,0.112,0.846,0.23,1.276,0.191c0.509-0.047,1.076-0.069,1.541-0.295c0.404-0.196,0.722-0.483,0.965-0.861
			C272.041,318.33,271.883,317.778,271.503,317.565z"/>
		<path style="fill:#A4D0F0;" d="M288.52,305.584c-0.064-0.151-0.116-0.304-0.21-0.439c-0.056-0.082-0.115-0.161-0.174-0.241
			c-0.159-0.215-0.322-0.427-0.487-0.637c-0.275-0.348-0.687-0.58-1.061-0.812c-0.2-0.124-0.4-0.259-0.635-0.304
			c-0.189-0.036-0.332-0.056-0.499-0.131c-0.161-0.073-0.342-0.07-0.473,0.061c-0.119,0.119-0.154,0.328-0.061,0.473
			c0.105,0.165,0.125,0.226,0.176,0.423c0.06,0.233,0.181,0.422,0.306,0.624c0.097,0.157,0.191,0.315,0.283,0.475
			c0.135,0.237,0.278,0.446,0.469,0.644c0.268,0.277,0.505,0.598,0.806,0.837c0.078,0.062,0.154,0.125,0.232,0.188
			c0.165,0.132,0.311,0.217,0.514,0.284c0.145,0.048,0.289,0.1,0.432,0.154c0.275,0.103,0.532-0.159,0.544-0.414
			c0.008-0.165,0.013-0.33,0.015-0.494C288.699,306.017,288.617,305.814,288.52,305.584z"/>
		<path style="fill:#A4D0F0;" d="M291.413,321.085c-0.034-0.156-0.24-0.238-0.373-0.152c-0.339,0.22-0.561,0.572-0.822,0.878
			c-0.301,0.352-0.629,0.695-0.86,1.097c-0.209,0.363-0.429,0.721-0.659,1.071c-0.148,0.226-0.241,0.466-0.341,0.715
			c-0.117,0.292-0.158,0.525-0.101,0.839c0.067,0.364,0.475,0.507,0.793,0.45c0.498-0.088,0.958-0.634,1.206-1.051
			c0.228-0.382,0.443-0.771,0.647-1.167c0.22-0.428,0.319-0.893,0.404-1.364C291.383,321.974,291.507,321.516,291.413,321.085z"/>
		<path style="fill:#A4D0F0;" d="M272.59,334.622c-0.059-0.196-0.125-0.385-0.211-0.572c-0.102-0.224-0.211-0.445-0.316-0.668
			c-0.05-0.106-0.1-0.212-0.151-0.318c-0.075-0.158-0.185-0.288-0.294-0.424c-0.066-0.082-0.132-0.164-0.198-0.247
			c-0.11-0.137-0.238-0.2-0.39-0.235c-0.005-0.002-0.01-0.005-0.015-0.007c-0.011-0.005-0.02,0-0.03-0.004
			c-0.038-0.006-0.066-0.023-0.109-0.025c0.027,0.007,0.053,0.014,0.08,0.022c-0.123-0.036-0.235-0.007-0.324,0.087
			c0.019-0.019,0.039-0.039,0.058-0.058c-0.173,0.109-0.279,0.234-0.324,0.438c-0.022,0.102-0.033,0.209-0.05,0.312
			c-0.044,0.275-0.06,0.522-0.039,0.798c0.041,0.527,0.038,1.089,0.201,1.595c0.058,0.18,0.153,0.354,0.285,0.49
			c0.004,0.004,0.002,0.001,0.006,0.004c0.039,0.093,0.095,0.187,0.139,0.275c0.16,0.318,0.342,0.619,0.729,0.686
			c0.573,0.099,1.011-0.342,1.009-0.908c-0.001-0.22-0.043-0.447-0.025-0.667C272.647,335.007,272.648,334.816,272.59,334.622z"/>
		<path style="fill:#A4D0F0;" d="M256.015,344.698c-0.03-0.342-0.034-0.779-0.24-1.069c-0.02-0.046-0.041-0.096-0.068-0.136
			c-0.029-0.07-0.058-0.141-0.088-0.21c-0.061-0.142-0.305-0.207-0.428-0.112c-0.058,0.045-0.116,0.089-0.175,0.132
			c0.084-0.023,0.169-0.046,0.253-0.068c-0.147,0.006-0.257,0.063-0.363,0.134c-0.275,0.115-0.477,0.345-0.707,0.551
			c-0.139,0.106-0.258,0.235-0.381,0.4c-0.026,0.035-0.057,0.075-0.084,0.114c-0.005,0.006-0.009,0.012-0.014,0.018
			c-0.16,0.2-0.329,0.393-0.505,0.579c-0.179,0.189-0.381,0.359-0.553,0.553c-0.353,0.399-0.538,0.823-0.742,1.309
			c0.052-0.124,0.105-0.249,0.157-0.373c-0.108,0.252-0.232,0.491-0.269,0.766c-0.039,0.291-0.012,0.61,0.121,0.878
			c0.077,0.212,0.208,0.406,0.379,0.537c0.156,0.121,0.324,0.187,0.499,0.217c0.43,0.129,0.913,0.068,1.289-0.179
			c0.225-0.148,0.501-0.326,0.676-0.512c0.176-0.188,0.368-0.419,0.495-0.633c0.143-0.242,0.234-0.535,0.327-0.804
			c0.105-0.303,0.195-0.612,0.271-0.924c0.042-0.171,0.078-0.343,0.111-0.515C256.022,345.111,256.039,344.905,256.015,344.698z"/>
		<path style="fill:#A4D0F0;" d="M242.672,337.002c0.002-0.032,0.013-0.063,0.012-0.094c-0.005-0.206-0.064-0.41-0.16-0.592
			c-0.044-0.084-0.147-0.194-0.221-0.283c-0.08-0.095-0.164-0.189-0.251-0.279c-0.086-0.09-0.175-0.177-0.267-0.262
			c-0.108-0.099-0.224-0.204-0.352-0.273c-0.132-0.072-0.282-0.122-0.424-0.171c-0.275-0.095-0.586-0.205-0.878-0.175
			c-0.272,0.028-0.66,0.047-0.881,0.247c-0.003,0.001-0.005,0.002-0.008,0.003c-0.027,0.012-0.039,0.046-0.06,0.069
			c-0.014,0.019-0.037,0.029-0.048,0.051l0.026-0.026c-0.033,0.044-0.052,0.082-0.063,0.137v-0.025
			c-0.102,0.28,0.114,0.59,0.232,0.85c0.062,0.152,0.076,0.174,0.225,0.359c0.012,0.014,0.023,0.029,0.035,0.043
			c0.043,0.058,0.086,0.115,0.126,0.175c0.054,0.079,0.106,0.153,0.165,0.229c0.103,0.134,0.108,0.142,0.231,0.238
			c-0.016-0.013-0.033-0.025-0.049-0.038c0.146,0.113,0.287,0.232,0.422,0.358c0.067,0.063,0.13,0.131,0.197,0.193
			c0.206,0.189,0.485,0.316,0.769,0.34c0.092,0.031,0.186,0.059,0.289,0.059c0.217,0,0.413-0.073,0.581-0.204
			c0.164-0.127,0.285-0.295,0.341-0.499C242.704,337.287,242.694,337.144,242.672,337.002z"/>
		<g>
			<g>
				<path style="fill:#A4D0F0;" d="M241.666,358.47c-0.057-0.065-0.117-0.124-0.192-0.182c-0.23-0.178-0.457-0.237-0.738-0.272
					c-0.24-0.02-0.456-0.001-0.705,0.104c-0.133,0.056-0.219,0.105-0.332,0.183c-0.197,0.137-0.451,0.283-0.609,0.45
					c-0.211,0.221-0.399,0.472-0.591,0.71c-0.207,0.257-0.32,0.433-0.46,0.706c-0.137,0.266-0.306,0.545-0.365,0.835
					c-0.054,0.264-0.066,0.531-0.071,0.799c-0.001,0.063-0.004,0.127-0.004,0.19c0.002,0.332,0.073,0.554,0.219,0.849
					c0.208,0.423,0.769,0.738,1.236,0.709c0.323-0.02,0.535-0.062,0.817-0.223c0.064-0.037,0.128-0.076,0.191-0.114
					c0.227-0.136,0.443-0.259,0.64-0.447c0.394-0.376,0.731-0.978,0.93-1.48c0.111-0.281,0.245-0.574,0.323-0.866
					c0.065-0.245,0.067-0.519,0.089-0.773c0.005-0.063,0.015-0.127,0.017-0.19C242.071,359.061,241.894,358.764,241.666,358.47z"/>
				<path style="fill:#A4D0F0;" d="M241.837,358.69l-0.218-0.283c0.017,0.021,0.031,0.042,0.047,0.063
					C241.724,358.536,241.778,358.608,241.837,358.69z"/>
				<path style="fill:#A4D0F0;" d="M240.684,358.005c0.019,0.002,0.033,0.008,0.051,0.01c0.085,0.007,0.173,0.018,0.267,0.033
					C240.896,358.034,240.79,358.02,240.684,358.005z"/>
				<path style="fill:#A4D0F0;" d="M240.631,357.998c0.018,0.003,0.035,0.005,0.053,0.007c-0.006-0.001-0.01-0.003-0.016-0.003
					C240.656,358.001,240.644,358,240.631,357.998z"/>
			</g>
		</g>
		<path style="fill:#A4D0F0;" d="M234.549,379.726c-0.043-0.188-0.153-0.314-0.225-0.48c0.001,0.003,0.003,0.006,0.004,0.01
			c-0.048-0.102-0.103-0.2-0.175-0.294c-0.097-0.126-0.174-0.197-0.289-0.294c-0.057-0.048-0.112-0.098-0.169-0.146
			c-0.112-0.086-0.224-0.173-0.336-0.259c-0.069-0.031-0.139-0.058-0.208-0.088c-0.479-0.211-0.921-0.509-1.43-0.641
			c-0.396-0.103-0.831-0.314-1.253-0.307l-0.006-0.001c-0.168-0.034-0.282-0.033-0.453-0.013c0.255-0.03,0.104-0.014,0.05-0.009
			c-0.084,0.007-0.167,0.01-0.252,0.014c-0.101,0.004-0.174,0.065-0.207,0.158c-0.066,0.187-0.153,0.394-0.147,0.595
			c0.001,0.036,0.005,0.076,0.012,0.111c0.001,0.011,0.003,0.022,0.004,0.034c0,0,0,0,0,0.001c-0.026,0.191,0,0.383,0.058,0.567
			c0.131,0.415,0.35,0.827,0.591,1.19c0.329,0.495,0.878,0.852,1.387,1.154c0.177,0.105,0.378,0.226,0.577,0.271
			c0.214,0.049,0.441,0.064,0.659,0.088c0.215,0.024,0.402,0.037,0.625-0.035c0.151-0.049,0.295-0.123,0.437-0.197
			c0.018-0.008,0.037-0.016,0.055-0.025c0.002-0.001,0.003-0.002,0.005-0.002c-0.001,0.001-0.003,0.001-0.004,0.002
			c0.093-0.044,0.184-0.093,0.269-0.158c0.193-0.15,0.379-0.364,0.434-0.608C234.608,380.147,234.597,379.94,234.549,379.726z"/>
		<path style="fill:#A4D0F0;" d="M253.255,374.113c-0.508-0.1-1.088-0.086-1.602-0.033c-0.512,0.053-1.009,0.085-1.509,0.22
			c-0.207,0.056-0.419,0.099-0.625,0.157c-0.226,0.063-0.43,0.173-0.64,0.276c-0.345,0.169-0.347,0.645-0.116,0.897
			c0.649,0.707,1.582,1.099,2.504,1.303c0.52,0.115,1.056,0.155,1.589,0.134c0.815-0.032,1.895-0.588,1.87-1.532
			C254.705,374.753,253.955,374.251,253.255,374.113z"/>
		<path style="fill:#A4D0F0;" d="M271.584,360.156c-0.058-0.43-0.325-0.743-0.696-0.956c-0.335-0.192-0.651-0.244-1.01-0.24
			c-0.803-0.157-1.641,0.057-2.452,0.197c-0.351,0.06-0.664,0.162-1.002,0.273c-0.224,0.074-0.45,0.138-0.667,0.23
			c-0.276,0.117-0.486,0.319-0.707,0.515c-0.62,0.547-0.357,1.486,0.244,1.894c0.202,0.138,0.399,0.272,0.638,0.342
			c0.267,0.078,0.581,0.08,0.86,0.113c0.375,0.045,0.718,0.074,1.094,0.03c0.463-0.054,0.943-0.09,1.399-0.191
			c0.29-0.064,0.57-0.214,0.843-0.335c0.165-0.073,0.316-0.161,0.457-0.265c0.037-0.017,0.077-0.028,0.112-0.047
			c0.266-0.147,0.446-0.322,0.618-0.566C271.522,360.854,271.632,360.518,271.584,360.156z"/>
		<path style="fill:#A4D0F0;" d="M283.596,350.831c0.02-0.128,0.054-0.25,0.05-0.38c-0.006-0.19-0.058-0.362-0.12-0.538
			c-0.086-0.242-0.175-0.483-0.268-0.723c-0.124-0.319-0.281-0.584-0.471-0.866c-0.289-0.429-0.593-0.847-0.908-1.257
			c-0.177-0.229-0.347-0.482-0.551-0.688c-0.186-0.188-0.411-0.347-0.618-0.511c-0.238-0.189-0.597-0.02-0.522,0.304
			c0.056,0.241,0.095,0.488,0.157,0.728c0.062,0.24,0.172,0.473,0.255,0.707c0.174,0.492,0.332,0.989,0.472,1.492
			c0.086,0.306,0.17,0.594,0.305,0.885c0.054,0.116,0.107,0.233,0.159,0.351c0.026,0.059,0.052,0.117,0.077,0.176
			c0.004,0.01,0.035,0.082,0.048,0.11c0.024,0.057,0.08,0.191,0.071,0.169c0.051,0.122,0.099,0.192,0.18,0.297
			c0.09,0.116,0.202,0.172,0.304,0.272c-0.017-0.014-0.031-0.023,0.005,0.028c0.162,0.224,0.363,0.453,0.635,0.531
			c0.247,0.07,0.453-0.054,0.596-0.242c0.167-0.221,0.145-0.55,0.15-0.815C283.601,350.796,283.612,350.733,283.596,350.831z"/>
		<path style="fill:#A4D0F0;" d="M280.607,375.991c0.002,0.037,0.004,0.055,0.005,0.067c-0.001-0.019-0.004-0.053-0.006-0.068
			c-0.017-0.115-0.03-0.23-0.047-0.345c-0.011-0.081-0.023-0.161-0.036-0.242c-0.035-0.217-0.104-0.406-0.206-0.601
			c-0.207-0.396-0.775-0.437-1.077-0.139c-0.224,0.221-0.42,0.512-0.571,0.794c-0.056,0.065-0.137,0.193-0.154,0.221
			c-0.039,0.065-0.067,0.134-0.098,0.203c-0.069,0.149-0.14,0.297-0.215,0.443c-0.191,0.372-0.391,0.722-0.538,1.117
			c-0.054,0.146-0.117,0.288-0.171,0.433c-0.058,0.155-0.081,0.323-0.12,0.484c-0.093,0.388-0.113,0.781,0.112,1.131
			c0.098,0.153,0.204,0.261,0.343,0.368c0.487,0.376,1.265,0.209,1.64-0.238c0.266-0.317,0.505-0.63,0.674-1.008
			c0.1-0.226,0.222-0.453,0.278-0.693c0.038-0.164,0.062-0.333,0.088-0.5c0.041-0.262,0.076-0.526,0.107-0.79
			c0.01-0.087,0.022-0.175,0.027-0.263c0.002-0.039,0.004-0.074,0.003-0.113C280.643,376.231,280.592,375.76,280.607,375.991z"/>
		<path style="fill:#A4D0F0;" d="M270.38,394.993c-0.009-0.098-0.018-0.195-0.028-0.293c-0.04-0.389-0.133-0.702-0.36-1.011
			c-0.17-0.232-0.339-0.465-0.51-0.695c-0.251-0.337-0.526-0.597-0.833-0.876c-0.482-0.438-1.011-0.812-1.548-1.18
			c-0.253-0.173-0.566-0.342-0.859-0.429c-0.114-0.034-0.236-0.068-0.353-0.091c-0.186-0.036-0.361,0.033-0.531,0.013
			c-0.214-0.025-0.386,0.2-0.391,0.391l-0.001,0.029c-0.092,0.228-0.076,0.449-0.046,0.703c0.047,0.395,0.195,0.772,0.37,1.129
			c0.253,0.517,0.518,1.019,0.844,1.494c0.217,0.317,0.424,0.65,0.69,0.927c0.2,0.209,0.416,0.407,0.625,0.607
			c0.261,0.25,0.535,0.462,0.894,0.558c0.104,0.028,0.21,0.049,0.315,0.074c0.294,0.069,0.6,0.168,0.903,0.173
			c0.506,0.008,0.811-0.405,0.864-0.864C270.451,395.441,270.4,395.205,270.38,394.993z"/>
		<path style="fill:#A4D0F0;" d="M246.724,397.143c-0.077-0.278-0.149-0.574-0.307-0.817c-0.132-0.202-0.299-0.408-0.464-0.587
			c-0.228-0.247-0.573-0.336-0.895-0.293c-0.35,0.047-0.577,0.228-0.779,0.509c-0.486,0.679-0.712,1.578-0.82,2.397
			c0.021-0.155,0.042-0.309,0.063-0.464c-0.076,0.552-0.193,1.096-0.224,1.654c-0.03,0.521,0.145,1.039,0.317,1.529
			c0.156,0.443,0.454,0.793,0.922,0.922c0.443,0.122,0.964,0,1.284-0.339c0.19-0.202,0.36-0.444,0.526-0.662
			c0.204-0.267,0.361-0.498,0.448-0.844c0.127-0.502,0.163-1.015,0.161-1.531C246.952,398.109,246.858,397.629,246.724,397.143z"/>
		<path style="fill:#A4D0F0;" d="M228.77,404.513c-0.012-0.085-0.02-0.173-0.038-0.257c-0.063-0.281-0.22-0.533-0.385-0.765
			c-0.265-0.375-0.609-0.696-0.924-1.029c-0.306-0.324-0.681-0.512-1.066-0.723c-0.15-0.082-0.299-0.172-0.453-0.247
			c-0.166-0.08-0.342-0.108-0.516-0.156c-0.032-0.03-0.064-0.061-0.095-0.091c-0.274-0.262-0.702,0.069-0.521,0.402
			c0.02,0.037,0.041,0.075,0.061,0.112c-0.001,0.15-0.017,0.299,0.003,0.448c0.027,0.202,0.085,0.4,0.133,0.598
			c0.105,0.432,0.187,0.838,0.423,1.224c0.191,0.314,0.372,0.639,0.583,0.94c0.194,0.276,0.47,0.61,0.772,0.773
			c0.086,0.046,0.182,0.08,0.272,0.119c0.236,0.102,0.442,0.13,0.656,0.127c0.066,0.026,0.131,0.055,0.2,0.066
			c0.471,0.073,0.806-0.181,0.859-0.655c0.006-0.051-0.004-0.102-0.008-0.153c0.013-0.034,0.033-0.065,0.045-0.099
			C228.827,404.936,228.827,404.725,228.77,404.513z"/>
		<path style="fill:#A4D0F0;" d="M264.545,405.726c-0.066-0.163-0.134-0.326-0.206-0.487c-0.014-0.031-0.027-0.063-0.041-0.094
			c-0.115-0.213-0.271-0.384-0.47-0.512c-0.176-0.161-0.383-0.27-0.621-0.327c-0.498-0.113-0.948-0.043-1.407,0.184
			c-0.458,0.227-0.742,0.606-1.015,1.022c-0.212,0.324-0.362,0.673-0.422,1.057c-0.057,0.369-0.107,0.74-0.149,1.111
			c-0.022,0.197-0.021,0.337,0.007,0.545c0.012,0.266,0.091,0.513,0.237,0.742c0.104,0.135,0.208,0.269,0.312,0.404
			c0.01,0.011,0.022,0.018,0.032,0.029c0.012,0.025,0.023,0.051,0.035,0.076c0.2,0.412,0.547,0.689,1.003,0.75
			c0.457,0.061,0.853-0.111,1.161-0.45c0.004-0.004,0.007-0.008,0.011-0.012c0.059-0.027,0.12-0.051,0.174-0.081
			c0.464-0.253,0.746-0.712,0.917-1.192c0.039-0.11,0.075-0.221,0.115-0.331c0.05-0.139,0.107-0.276,0.162-0.413
			c0.051-0.109,0.1-0.22,0.131-0.33c0.055-0.191,0.076-0.459,0.086-0.657c0.005-0.091,0.006-0.182,0.011-0.273
			c0.004-0.081,0.01-0.16,0.006-0.241C264.592,406.073,264.569,405.9,264.545,405.726z"/>
		<path style="fill:#A4D0F0;" d="M295.619,395.151c-0.133-0.654-0.49-1.188-1.014-1.593c-0.167-0.129-0.335-0.258-0.503-0.386
			c-0.283-0.215-0.432-0.311-0.832-0.443c-0.231-0.076-0.465-0.144-0.697-0.215c-0.129-0.04-0.257-0.083-0.387-0.12
			c-0.176-0.05-0.358-0.068-0.54-0.081c-0.087-0.019-0.175-0.038-0.262-0.055c-0.308-0.062-0.607-0.112-0.916-0.027l-0.178-0.018
			c-0.432-0.044-0.888,0.272-1.096,0.629c-0.229,0.391-0.23,0.89,0,1.281c0.017,0.03,0.035,0.059,0.052,0.088
			c0.052,0.217,0.139,0.426,0.268,0.599c0.09,0.121,0.19,0.239,0.265,0.37c-0.004-0.01-0.009-0.02-0.013-0.03
			c0.117,0.224,0.259,0.419,0.448,0.634c0.082,0.093,0.167,0.185,0.25,0.277c0.175,0.194,0.342,0.401,0.527,0.585
			c0.3,0.299,0.699,0.494,1.074,0.684c0.392,0.199,0.917,0.396,1.369,0.376c0.272-0.012,0.545-0.069,0.81-0.132
			c0.451-0.108,0.96-0.494,1.177-0.906C295.677,396.183,295.729,395.693,295.619,395.151z"/>
		<path style="fill:#A4D0F0;" d="M294.149,363.797c-0.066-0.494-0.133-0.988-0.199-1.483c-0.036-0.269-0.108-0.487-0.211-0.739
			c-0.093-0.227-0.227-0.395-0.38-0.585c-0.074-0.092-0.258-0.091-0.331,0c-0.153,0.19-0.287,0.358-0.38,0.585
			c-0.103,0.252-0.175,0.469-0.211,0.739c-0.066,0.494-0.133,0.988-0.199,1.483c-0.04,0.296-0.097,0.591-0.093,0.89
			c0.004,0.266,0.017,0.532,0.026,0.797c0.01,0.304,0.013,0.648,0.109,0.936c0.082,0.243,0.196,0.479,0.293,0.716
			c0.248,0.608,0.994,0.609,1.243,0c0.097-0.237,0.211-0.474,0.293-0.716c0.096-0.285,0.1-0.635,0.109-0.936
			c0.009-0.266,0.023-0.532,0.026-0.797C294.244,364.388,294.188,364.093,294.149,363.797z"/>
		<path style="fill:#A4D0F0;" d="M305.503,395.99c-0.046-0.216-0.188-0.491-0.3-0.696c-0.128-0.235-0.353-0.417-0.545-0.599
			c-0.196-0.186-0.391-0.375-0.628-0.508c-0.133-0.075-0.272-0.139-0.408-0.209c-0.344-0.176-0.682-0.353-1.047-0.486
			c-0.138-0.05-0.276-0.112-0.417-0.152c-0.129-0.036-0.269-0.037-0.406-0.037c-0.044-0.024-0.089-0.046-0.133-0.07
			c-0.383-0.207-0.858,0.219-0.615,0.615c0.031,0.05,0.06,0.101,0.09,0.151c0.006,0.123,0.014,0.247,0.047,0.359
			c0.057,0.197,0.169,0.397,0.251,0.587c0.124,0.288,0.284,0.551,0.442,0.822c0.076,0.13,0.149,0.261,0.227,0.389
			c0.148,0.242,0.325,0.421,0.525,0.611c0.192,0.182,0.388,0.395,0.616,0.528c0.14,0.082,0.342,0.144,0.504,0.211
			c0.07,0.029,0.135,0.061,0.21,0.072c0.229,0.061,0.458,0.061,0.686,0c0.219-0.061,0.408-0.172,0.57-0.332
			C305.512,396.905,305.6,396.449,305.503,395.99z"/>
		<path style="fill:#A4D0F0;" d="M296.821,340.26c-0.134-0.345-0.526-0.479-0.816-0.216c-0.347,0.315-0.594,0.645-0.762,1.087
			c-0.139,0.364-0.299,0.735-0.408,1.109c-0.108,0.371-0.18,0.772-0.251,1.152c-0.046,0.25-0.06,0.513-0.04,0.767
			c0.016,0.196,0.075,0.34,0.153,0.522c-0.023-0.098-0.023-0.099,0-0.002l0.034,0.144c0.105,0.444,0.768,0.659,1.077,0.284
			c0.018-0.021,0.133-0.151,0.132-0.158c0.138-0.118,0.203-0.125,0.325-0.323c0.124-0.202,0.248-0.459,0.316-0.683
			c0.113-0.37,0.209-0.763,0.287-1.142c0.09-0.437,0.105-0.902,0.152-1.346C297.066,341.036,296.972,340.648,296.821,340.26z"/>
		<path style="fill:#A4D0F0;" d="M303.842,381.266c-0.069-0.111-0.132-0.227-0.2-0.339c-0.283-0.462-0.691-0.649-1.187-0.789
			c-0.395-0.112-0.772-0.255-1.176-0.329c-0.482-0.088-0.993-0.123-1.484-0.147c-0.138-0.012-0.275,0.001-0.411,0.04
			c0.194-0.025,0.223-0.03,0.087-0.012c-0.08,0.009-0.16,0.018-0.24,0.027c-0.149,0.015-0.32,0.012-0.463,0.052
			c-0.123,0.034-0.223,0.094-0.31,0.17c-0.232,0.113-0.403,0.379-0.311,0.64c0,0.001,0,0.002,0.001,0.002
			c0.003,0.245,0.129,0.459,0.282,0.665c0.147,0.198,0.292,0.41,0.471,0.58c0.423,0.402,1.025,0.742,1.564,0.943
			c0.51,0.19,1.059,0.23,1.599,0.27c0.5,0.037,0.965-0.064,1.345-0.421c0.105-0.099,0.203-0.206,0.3-0.312
			C303.96,382.03,304.049,381.598,303.842,381.266z"/>
		<path style="fill:#A4D0F0;" d="M300.795,300.716c-0.024-0.087-0.082-0.196-0.124-0.288c-0.069-0.153-0.156-0.282-0.282-0.399
			c-0.177-0.165-0.347-0.323-0.589-0.396c-0.082-0.025-0.163-0.036-0.245-0.041c-0.311-0.171-0.622-0.342-0.933-0.514
			c-0.186-0.103-0.451-0.086-0.601,0.078c-0.145,0.158-0.2,0.411-0.077,0.601l0.602,0.937c0.02,0.126,0.051,0.243,0.112,0.366
			c0.08,0.16,0.209,0.272,0.336,0.391c0.087,0.081,0.179,0.156,0.283,0.214c0.097,0.053,0.213,0.091,0.32,0.131
			c0.112,0.042,0.181,0.064,0.325,0.064c0.143,0,0.277-0.038,0.403-0.101c0.243-0.054,0.457-0.262,0.442-0.524
			c0-0.005-0.001-0.01-0.001-0.015C300.819,301.056,300.841,300.882,300.795,300.716z"/>
		<path style="fill:#DA8F6C;" d="M254.838,245.388c-0.313,0.005-0.621-0.072-0.931-0.056c-0.338,0.018-0.662,0.144-0.979,0.252
			c-0.643,0.221-1.283,0.445-1.938,0.631c-1.351,0.383-2.727,0.672-4.105,0.942c-1.353,0.266-2.716,0.557-4.09,0.683
			c-0.684,0.063-1.375,0.083-2.061,0.077c-0.556-0.005-1.367-0.176-1.841,0.174c-0.114,0.084-0.203,0.227-0.153,0.375
			c0.198,0.587,0.898,0.817,1.448,0.974c0.726,0.208,1.51,0.264,2.261,0.249c1.556-0.031,3.087-0.326,4.612-0.613
			c1.455-0.273,2.91-0.555,4.335-0.961c0.728-0.207,1.459-0.434,2.155-0.734c0.347-0.15,0.699-0.298,0.981-0.559
			c0.26-0.241,0.419-0.579,0.635-0.86C255.351,245.727,255.102,245.384,254.838,245.388z"/>
		<path style="fill:#DA8F6C;" d="M207.66,228.021c-0.133-0.383-0.404-0.647-0.662-0.848c-0.078-0.061-0.314-0.244-0.456-0.348
			c-0.057-0.042-0.116-0.083-0.173-0.126c-0.011-0.01-0.043-0.037-0.061-0.054c-0.123-0.113-0.245-0.224-0.359-0.346
			c-0.057-0.061-0.111-0.124-0.165-0.188c-0.02-0.024-0.02-0.022-0.023-0.023c-0.011-0.016-0.012-0.019-0.035-0.053
			c-0.084-0.124-0.166-0.249-0.239-0.379c-0.041-0.072-0.077-0.147-0.116-0.22c-0.014-0.029-0.027-0.057-0.041-0.086
			c-0.243-0.62-0.305-1.149-0.232-1.745c0.025-0.208,0.128-0.605,0.234-0.88c0.008-0.016,0.052-0.119,0.062-0.139
			c0.057-0.125,0.108-0.25,0.155-0.379c0.059-0.16,0.118-0.322,0.152-0.49c0.136-0.667-0.556-1.31-1.197-0.92
			c-0.814,0.496-1.178,1.516-1.316,2.417c-0.136,0.89-0.1,1.819,0.23,2.667c0.31,0.797,0.774,1.525,1.411,2.102
			c0.633,0.572,1.697,1.277,2.548,0.732C207.595,228.576,207.751,228.283,207.66,228.021z"/>
		<g>
			<path style="fill:#DA8F6C;" d="M208.113,227.077c0.001,0.005,0.001,0.008,0.005,0.016c-0.003-0.007-0.003-0.011-0.004-0.015
				C208.114,227.078,208.114,227.078,208.113,227.077z"/>
			<path style="fill:#DA8F6C;" d="M210.878,229.056c0.006-0.071,0.005-0.138-0.002-0.209c-0.022-0.22-0.055-0.434-0.119-0.645
				c-0.104-0.341-0.248-0.671-0.439-0.973c-0.203-0.322-0.459-0.592-0.744-0.842c-0.027-0.023-0.053-0.046-0.081-0.069
				c-0.04-0.033-0.081-0.065-0.122-0.096c-0.064-0.059-0.143-0.092-0.226-0.119c0,0,0,0-0.001,0c-0.06-0.025-0.12-0.052-0.18-0.077
				c-0.398-0.168-0.803-0.023-0.966,0.384c-0.091,0.227,0.004,0.466,0.115,0.667c-0.001-0.004-0.004-0.011-0.003-0.012
				c-0.001,0.001,0.003,0.01,0.004,0.013c0.006,0.012,0.012,0.024,0.018,0.036c0.045,0.078,0.005,0.019-0.015-0.021
				c0.021,0.056,0.093,0.187,0.105,0.205c0.042,0.066,0.091,0.126,0.133,0.192c0.075,0.118,0.137,0.245,0.194,0.373
				c0.025,0.057,0.051,0.113,0.078,0.169c0.014,0.029,0.028,0.057,0.042,0.086c-0.002-0.01-0.003-0.011-0.006-0.022
				c0.002,0.01,0.007,0.019,0.01,0.029c0,0.001,0.001,0.002,0.001,0.002c0.015,0.031,0.023,0.063,0.027,0.083
				c0.07,0.23,0.166,0.453,0.222,0.688c0.032,0.136,0.064,0.274,0.113,0.406c0.018,0.048,0.045,0.101,0.07,0.154
				c-0.003,0.004-0.005,0.013-0.003,0.043c0.004,0.077,0.098,0.259,0.099,0.261c0.003,0.005,0.003,0.001,0.005,0.005
				c0.021,0.089,0.081,0.176,0.134,0.245c0.008,0.01,0.01,0.012,0.017,0.02c0.02,0.038,0.041,0.072,0.074,0.116
				c0.025,0.033,0.281,0.263,0.149,0.14c-0.103-0.095,0.037,0.028,0.041,0.03c0.056,0.039,0.114,0.078,0.182,0.096
				c0.125,0.032,0.243,0.01,0.358-0.037c-0.01,0.005-0.012,0.006-0.024,0.011c0.01-0.005,0.018-0.008,0.028-0.012
				c0.016-0.007,0.033-0.008,0.05-0.016c0.02-0.01,0.047-0.025,0.047-0.027c0.06-0.027,0.117-0.058,0.172-0.118
				c0.027-0.029,0.059-0.085,0.093-0.128c-0.023,0.028-0.038,0.052,0.004,0.005c0.01-0.01,0.013-0.024,0.022-0.034
				c0.005-0.004,0.01-0.014,0.015-0.017c-0.002,0.001-0.008,0.008-0.012,0.013c0.056-0.068,0.105-0.136,0.14-0.218
				c-0.003,0.008,0.122-0.242,0.033-0.088c-0.09,0.157,0.046-0.108,0.039-0.091c0.043-0.103,0.059-0.207,0.071-0.315
				c0,0.003-0.001,0.01-0.001,0.011C210.847,229.255,210.869,229.156,210.878,229.056z"/>
			<path style="fill:#DA8F6C;" d="M208.67,228.118c0.029,0.115,0.037,0.124,0.031,0.093c-0.009-0.029-0.02-0.057-0.028-0.085
				C208.672,228.123,208.671,228.12,208.67,228.118z"/>
			<path style="fill:#DA8F6C;" d="M209.097,226.078c0.018,0.004,0.03,0.019,0.047,0.025
				C209.269,226.155,209.113,226.088,209.097,226.078z"/>
		</g>
		<path style="fill:#593432;" d="M262.297,184.055c-2.219-0.208-4.467,0.586-6.654,0.914c-2.215,0.332-4.467,0.449-6.705,0.392
			c-4.507-0.114-8.98-1.008-13.19-2.622c-1.135-0.435-2.25-0.926-3.338-1.467c-0.99-0.493-1.966-1.145-3.02-1.51
			c-0.109-0.109-0.238-0.202-0.411-0.249c-0.472-0.13-1.142,0.161-1.225,0.696c-1.188,7.624-4.135,14.902-8.592,21.201
			c-4.324,6.113-10.131,11.302-16.999,14.376c-1.891,0.846-3.862,1.508-5.879,1.98c-0.996,0.233-2.002,0.392-3.012,0.551
			c-1.052,0.166-2.053,0.224-3.048,0.627c-0.201,0.081-0.329,0.423-0.07,0.535c1.709,0.744,3.726,0.436,5.52,0.159
			c1.895-0.292,3.758-0.788,5.561-1.442c3.689-1.339,7.097-3.344,10.184-5.752c6.24-4.867,11.159-11.463,14.376-18.672
			c1.693-3.794,2.935-7.767,3.675-11.852c0.512,0.322,1.061,0.596,1.58,0.868c1.078,0.563,2.184,1.071,3.309,1.533
			c2.188,0.897,4.456,1.596,6.768,2.093c4.577,0.984,9.321,1.215,13.965,0.615c2.507-0.324,5.494-0.638,7.445-2.391
			C262.776,184.421,262.567,184.08,262.297,184.055z"/>
		<path style="fill:#8A4E4F;" d="M225.452,175.412c-0.321-0.661-1.42-0.343-1.383,0.375c0.005,0.109-0.176,0.386-0.225,0.506
			c-0.09,0.221-0.177,0.442-0.259,0.665c-0.165,0.446-0.333,0.89-0.504,1.333c-0.336,0.87-0.665,1.741-1.034,2.598
			c-0.751,1.743-1.595,3.446-2.526,5.099c-1.87,3.32-4.076,6.441-6.638,9.265c-5.209,5.739-11.802,10.17-19.163,12.637
			c-2.091,0.701-4.233,1.246-6.405,1.624c-1.099,0.191-2.207,0.342-3.312,0.5c-1.119,0.16-2.199,0.463-3.318,0.599
			c-0.603,0.074-0.612,0.879,0,0.945c1.055,0.114,2.083,0.335,3.147,0.302c1.036-0.032,2.053-0.127,3.077-0.282
			c2.041-0.308,4.06-0.765,6.036-1.36c3.972-1.196,7.794-2.937,11.308-5.141c6.836-4.287,12.473-10.333,16.53-17.29
			c1.127-1.932,2.123-3.942,2.998-6c0.443-1.043,0.879-2.096,1.236-3.172C225.343,177.641,225.938,176.41,225.452,175.412z"/>
		<path style="fill:#8A4E4F;" d="M219.1,176.402c-0.06-0.165-0.229-0.243-0.39-0.159c-0.528,0.276-0.718,0.744-0.997,1.26
			c-0.32,0.592-0.653,1.175-0.973,1.768c-0.581,1.078-1.241,2.122-1.917,3.143c-1.398,2.111-2.941,4.113-4.692,5.944
			c-3.473,3.632-7.6,6.6-12.173,8.69c-2.589,1.183-5.267,2.143-7.905,3.188c-0.361,0.143-0.347,0.728,0.098,0.721
			c5.257-0.085,10.3-2.549,14.58-5.451c4.35-2.949,8.292-6.763,11.122-11.212c0.793-1.247,1.496-2.539,2.114-3.881
			c0.299-0.648,0.601-1.285,0.814-1.967C218.992,177.768,219.353,177.099,219.1,176.402z"/>
		<path style="fill:#8A4E4F;" d="M258.345,179.746c-0.408,0.004-0.818-0.109-1.23-0.113c-0.479-0.005-0.967-0.006-1.445,0.004
			c-0.901,0.019-1.803,0.078-2.704,0.113c-1.813,0.071-3.621,0.025-5.424-0.182c-3.517-0.405-7.004-1.419-10.202-2.936
			c-0.913-0.433-1.802-0.916-2.692-1.393c-0.381-0.205-0.776-0.38-1.151-0.593c-0.063-0.036-0.213-0.132-0.273-0.156
			c-0.277-0.244-0.761,0.199-0.83,0.501c-0.219,0.946,0.939,1.581,1.594,2.002c1.735,1.115,3.648,1.985,5.581,2.694
			c3.902,1.432,8.093,2.141,12.249,2.09c1.167-0.014,2.326-0.097,3.473-0.319c0.55-0.106,1.067-0.26,1.601-0.425
			c0.588-0.181,1.051-0.506,1.6-0.747C258.762,180.165,258.614,179.744,258.345,179.746z"/>
		<path style="fill:#8A4E4F;" d="M250.062,176.535c-1.003-0.43-2.174-0.618-3.246-0.806c-1.175-0.207-2.354-0.393-3.523-0.635
			c-1.171-0.242-2.321-0.57-3.472-0.891c-0.534-0.149-1.068-0.309-1.609-0.43c-0.19-0.042-0.494-0.176-0.667-0.04
			c-0.944,0.737,0.849,1.657,1.323,1.877c1.188,0.553,2.429,0.961,3.697,1.285c1.231,0.315,2.515,0.553,3.787,0.611
			c1.202,0.055,2.599-0.029,3.71-0.526C250.228,176.906,250.233,176.609,250.062,176.535z"/>
		<path style="fill:#8A4E4F;" d="M199.124,353.411c-0.891-0.773-1.679-1.644-2.552-2.436c-0.835-0.757-1.654-1.546-2.412-2.381
			c-1.551-1.708-2.834-3.649-3.835-5.727c-2.225-4.621-2.65-9.656-1.857-14.682c0.903-5.722,2.675-11.257,3.196-17.048
			c0.251-2.797,0.214-5.616-0.268-8.387c-0.482-2.77-1.6-5.254-2.701-7.817c-0.588-1.37-1.118-2.796-1.334-4.277
			c-0.225-1.54-0.121-3.131,0.186-4.651c0.321-1.589,0.817-3.128,1.384-4.644c0.565-1.511,1.237-3,1.56-4.586
			c0.077-0.38-0.414-0.765-0.712-0.414c-1.87,2.204-3.05,5.14-3.826,7.901c-0.793,2.819-0.932,5.824-0.105,8.652
			c0.789,2.699,2.25,5.144,3.043,7.844c0.805,2.742,1.027,5.597,0.911,8.444c-0.242,5.974-2.055,11.663-3.092,17.512
			c-0.509,2.872-0.813,5.807-0.509,8.72c0.251,2.407,0.837,4.76,1.768,6.995c1.061,2.549,2.496,4.903,4.289,7.004
			c0.86,1.008,1.792,1.939,2.835,2.757c1.102,0.864,2.325,1.416,3.628,1.915C199.106,354.251,199.428,353.675,199.124,353.411z"/>
		<path style="fill:#8A4E4F;" d="M216.84,355.055c-0.968-0.876-2.092-1.564-3.169-2.297c-1.088-0.74-2.144-1.519-3.13-2.391
			c-2.027-1.792-3.79-3.864-5.278-6.121c-3.262-4.948-5.432-10.711-6.823-16.452c-0.386-1.593-0.674-3.189-0.77-4.827
			c-0.098-1.66,0.208-3.295,0.134-4.946c-0.008-0.176-0.229-0.287-0.36-0.149c-1.067,1.115-1.351,2.608-1.483,4.106
			c-0.142,1.602,0.029,3.205,0.304,4.784c0.533,3.067,1.526,6.094,2.605,9.008c2.101,5.677,5.099,11.127,9.526,15.327
			c2.186,2.074,5.01,4.45,8.14,4.697C216.905,355.824,217.109,355.298,216.84,355.055z"/>
		<path style="fill:#DA8F6C;" d="M370.799,164.207c-0.018-0.069-0.117-0.065-0.136,0c-0.3,1.012-0.268,2.159-0.349,3.206
			c-0.093,1.185-0.211,2.367-0.354,3.547c-0.143,1.182-0.305,2.363-0.486,3.54c-0.17,1.106-0.488,2.258-0.367,3.381
			c0.023,0.21,0.32,0.346,0.437,0.118c0.532-1.036,0.611-2.254,0.767-3.395c0.155-1.131,0.282-2.263,0.375-3.4
			c0.097-1.18,0.168-2.363,0.214-3.546C370.942,166.539,371.076,165.3,370.799,164.207z"/>
		<path style="fill:#DA8F6C;" d="M376.646,164.905c-0.012-0.042-0.069-0.039-0.083,0c-0.342,0.975-0.298,2.13-0.407,3.152
			c-0.125,1.171-0.247,2.341-0.402,3.509c-0.148,1.118-0.307,2.234-0.502,3.346c-0.185,1.052-0.484,2.119-0.408,3.192
			c0.013,0.182,0.266,0.28,0.364,0.099c0.547-1.009,0.672-2.198,0.853-3.317c0.172-1.068,0.329-2.142,0.445-3.218
			c0.121-1.118,0.214-2.246,0.257-3.37C376.804,167.226,376.955,165.944,376.646,164.905z"/>
		<path style="fill:#DA8F6C;" d="M381.952,170.861c-0.014-0.05-0.08-0.056-0.107-0.014c-0.394,0.624-0.461,1.569-0.636,2.279
			c-0.188,0.763-0.393,1.525-0.619,2.277c-0.227,0.754-0.482,1.499-0.763,2.234c-0.298,0.776-0.664,1.553-0.841,2.368
			c-0.03,0.14,0.161,0.293,0.268,0.156c0.978-1.255,1.456-3.011,1.902-4.514c0.241-0.81,0.443-1.627,0.601-2.457
			C381.888,172.49,382.148,171.561,381.952,170.861z"/>
		<path style="fill:#DA8F6C;" d="M321.946,129.948c-0.449-1.14-1.009-2.208-1.69-3.227c-0.134-0.201-1.497-2.126-1.842-1.53
			c-0.189,0.326,0.025,0.722,0.172,1.022c0.232,0.473,0.482,0.936,0.715,1.41c0.494,1.005,0.923,2.048,1.267,3.114
			c0.334,1.034,0.574,2.096,0.75,3.168c0.176,1.068,0.314,2.101,0.779,3.088c0.102,0.217,0.471,0.217,0.573,0
			C323.682,134.837,322.769,132.037,321.946,129.948z"/>
		<g>
			<path style="fill:#784544;" d="M223.856,208.079c0.014-0.005,0.055-0.034,0.089-0.071c-0.005,0.003-0.009,0.006-0.014,0.009
				C223.906,208.039,223.884,208.06,223.856,208.079z"/>
			<path style="fill:#784544;" d="M226.907,204.883c-0.448-0.243-0.879-0.331-1.382-0.281c-0.409,0.041-0.821,0.1-1.217,0.216
				c-0.767,0.224-1.49,0.592-2.092,1.117c-0.5,0.437-0.932,0.99-1.249,1.573c-0.228,0.419-0.297,0.834-0.336,1.305
				c-0.022,0.264,0.002,0.513,0.128,0.753c0.145,0.275,0.532,0.548,0.843,0.516c0.288-0.03,0.574-0.078,0.783-0.306
				c0.061-0.066,0.215-0.335,0.091-0.119c0.031-0.053,0.082-0.1,0.122-0.146c0.213-0.243,0.417-0.476,0.6-0.745
				c0.005-0.007,0.043-0.058,0.077-0.104c-0.045,0.056-0.091,0.105,0.013-0.019c0.012-0.017,0.031-0.043,0.03-0.044
				c0.002,0.002-0.009,0.017-0.019,0.031c0.077-0.092,0.158-0.181,0.242-0.266c0.087-0.088,0.176-0.172,0.27-0.253
				c0.011-0.009,0.029-0.021,0.044-0.032c-0.012,0.004-0.005-0.007,0.071-0.059c0.001-0.001,0.003-0.002,0.005-0.003
				c0.014-0.012,0.032-0.025,0.039-0.038c-0.005,0.01-0.016,0.019-0.025,0.028c0.206-0.143,0.409-0.288,0.629-0.409
				c0.111-0.061,0.25-0.105,0.355-0.177c-0.012,0.008-0.014,0.009-0.025,0.016c0.066-0.024,0.132-0.047,0.199-0.068
				c0.126-0.04,0.254-0.075,0.383-0.104c0.067-0.015,0.134-0.027,0.201-0.041c0.202-0.007,0.467-0.029,0.626-0.073
				c0.207-0.057,0.398-0.164,0.594-0.251C227.716,206.542,227.621,205.271,226.907,204.883z"/>
			<path style="fill:#784544;" d="M224.903,207.438c-0.003,0.001-0.007,0.002-0.01,0.003
				C224.788,207.48,224.711,207.566,224.903,207.438z"/>
			<path style="fill:#784544;" d="M223.288,208.643c-0.005,0.007-0.007,0.01-0.013,0.019c0.011-0.013,0.016-0.021,0.024-0.032
				c-0.002,0.002-0.004,0.004-0.006,0.006C223.29,208.64,223.292,208.639,223.288,208.643z"/>
		</g>
		<path style="fill:#784544;" d="M247.652,193.834c-0.165-0.316-0.619-0.611-0.964-0.713c-0.316-0.094-0.692-0.112-1.023-0.11
			c-0.688,0.005-1.342,0.169-1.965,0.454c-0.494,0.225-0.9,0.583-1.235,1.007c-0.191,0.241-0.376,0.489-0.512,0.766
			c-0.18,0.365-0.228,0.885-0.006,1.251c0.181,0.298,0.489,0.383,0.814,0.331c0.127-0.02,0.25-0.092,0.36-0.158
			c0.066-0.039,0.11-0.064,0.175-0.115c0.124-0.096,0.194-0.195,0.299-0.309c-0.043,0.047-0.099,0.12-0.023,0.031
			c0.03-0.035,0.06-0.071,0.09-0.105c0.07-0.078,0.143-0.153,0.219-0.225c0.06-0.056,0.127-0.108,0.189-0.163
			c0.003-0.002,0.002-0.002,0.006-0.004c0.049-0.032,0.096-0.065,0.145-0.096c0.178-0.111,0.353-0.229,0.538-0.328
			c0.044-0.024,0.092-0.044,0.136-0.068c0.101-0.037,0.201-0.074,0.304-0.103c0.114-0.032,0.23-0.05,0.345-0.078
			c0.054-0.005,0.107-0.01,0.161-0.013c0.119-0.006,0.239-0.007,0.358-0.001c0.053,0.002,0.106,0.01,0.158,0.011
			c0.013,0,0.016,0,0.02-0.001c0.015,0.002,0.023,0.003,0.042,0.006c0.337,0.045,0.782-0.021,1.08-0.163
			C247.769,194.743,247.838,194.192,247.652,193.834z"/>
		<path style="fill:#784544;" d="M230.865,213.755c-0.185-1.16-0.964-2.139-1.659-3.046c-0.218-0.285-0.489-0.498-0.811-0.638
			c-0.304-0.199-0.641-0.309-1.012-0.33c-1.549-0.089-2.609,1-2.942,2.43c-0.045,0.485,0.035,0.948,0.237,1.39
			c0.546,1.189,1.567,2.99,3.009,3.194c0.342,0.111,0.692,0.129,1.052,0.053c0.35-0.049,0.662-0.177,0.938-0.385
			c0.304-0.158,0.553-0.382,0.747-0.673C230.782,215.085,230.977,214.457,230.865,213.755z"/>
		<path style="fill:#784544;" d="M252.19,202.214c-0.185-1.16-0.964-2.139-1.659-3.046c-0.218-0.285-0.489-0.498-0.811-0.638
			c-0.304-0.199-0.641-0.309-1.012-0.33c-1.549-0.089-2.609,1-2.942,2.429c-0.045,0.485,0.034,0.948,0.237,1.39
			c0.546,1.189,1.567,2.99,3.009,3.194c0.342,0.111,0.692,0.129,1.052,0.053c0.35-0.049,0.662-0.177,0.938-0.385
			c0.304-0.158,0.553-0.382,0.747-0.673C252.107,203.543,252.302,202.916,252.19,202.214z"/>
		<path style="fill:#DA8F6C;" d="M247.03,214.355c-0.067-0.207-0.179-0.376-0.351-0.509c-0.397-0.307-0.921-0.254-1.288,0.077
			c-0.093,0.084-0.184,0.168-0.279,0.248c-0.126,0.088-0.251,0.176-0.36,0.288c-0.059,0.061-0.126,0.115-0.19,0.171
			c-0.24,0.163-0.503,0.285-0.722,0.476c-0.008,0.007-0.017,0.014-0.025,0.021c-0.041,0.029-0.082,0.058-0.124,0.084
			c-0.101,0.063-0.198,0.114-0.274,0.212c-0.142,0.184-0.145,0.39-0.052,0.6c0.072,0.163,0.244,0.243,0.398,0.31
			c0.146,0.064,0.292,0.125,0.445,0.169c0.354,0.102,0.755,0.017,1.102-0.086c0.182-0.054,0.356-0.13,0.53-0.205
			c0.187-0.081,0.361-0.173,0.51-0.318c0.141-0.137,0.26-0.303,0.377-0.459c0.077-0.102,0.151-0.207,0.203-0.324
			C247.038,214.874,247.115,214.617,247.03,214.355z"/>
		<path style="fill:#FFFFFF;" d="M249.634,219.699c-0.265,0.098-0.45,0.084-0.728,0.247c-0.067,0.05-0.132,0.102-0.197,0.153
			c-0.064,0.043-0.126,0.091-0.191,0.134c-0.292,0.196-0.552,0.424-0.818,0.648c-0.26,0.189-0.528,0.364-0.814,0.515
			c-0.304,0.16-0.585,0.357-0.897,0.505c-0.041,0.02-0.063,0.03-0.077,0.038l0,0c-0.135,0.057-0.262,0.117-0.393,0.182
			c-0.041,0.02-0.085,0.041-0.13,0.06c-0.021,0.008-0.041,0.016-0.062,0.024c-0.422,0.169-0.723,0.429-1.013,0.766
			c-0.184,0.214-0.231,0.485-0.095,0.738c0.114,0.213,0.268,0.395,0.446,0.559c0.337,0.311,0.726,0.417,1.161,0.483
			c0.386,0.059,0.73,0.093,1.116,0.056c0.39-0.038,0.832-0.066,1.211-0.193c0.637-0.213,1.263-0.55,1.801-0.952
			c0.211-0.158,0.436-0.311,0.619-0.501c0.178-0.185,0.346-0.443,0.488-0.667c0.171-0.271,0.303-0.548,0.347-0.872
			c0.027-0.2,0.016-0.36,0.023-0.555C251.461,220.203,250.489,219.383,249.634,219.699z"/>
		<path style="fill:#D37579;" d="M230.512,220.75c-0.362-0.604-1.011-1.043-1.768-1.194c-0.449-0.09-0.896-0.152-1.351-0.102
			c-2.159,0.238-4.885,1.588-5.208,3.988c-0.123,0.92,0.192,1.794,0.938,2.37C225.677,227.783,232.47,224.024,230.512,220.75z"/>
		<path style="fill:#D37579;" d="M261.009,205.273c-0.362-0.605-1.011-1.043-1.768-1.194c-0.449-0.09-0.896-0.153-1.351-0.102
			c-2.159,0.238-4.885,1.588-5.208,3.988c-0.124,0.92,0.192,1.794,0.938,2.37C256.174,212.305,262.967,208.547,261.009,205.273z"/>
	</g>
	<g>
		<path style="fill:#CF6469;" d="M429.09,90.43c-0.612-8.255-70.624-44.025-83.771-39.439c-6.583,2.296-30.573,61.452-25.987,72.764
			c1.733,4.273,12.193,10.903,25,17.482c-0.393,5.714-0.77,14.893,0.682,16.76c1.561,2.007,10.764-3.793,16.343-8.622
			c16.71,7.474,32.896,13.349,36.854,13.208C406.771,162.277,429.701,98.685,429.09,90.43z"/>
		<path style="fill:#FFFFFF;" d="M359.405,123.365c0,0-19.085-33.621-6.31-42.824c12.774-9.203,22.95,12.661,22.95,12.661
			s15.895-11.758,26.115,0.722C412.38,106.405,379.709,127.226,359.405,123.365z"/>
	</g>
	<g>
		<path style="fill:#CF6469;" d="M474.168,202.258c0.813-6.35-46.711-44.287-57.383-42.845
			c-5.344,0.722-32.674,41.841-30.948,51.123c0.652,3.507,7.554,10.148,16.242,17.115c-1.182,4.269-2.887,11.167-2.076,12.806
			c0.872,1.762,8.744-1.21,13.719-4.006c11.507,8.249,22.864,15.204,25.886,15.709C446.142,253.253,473.355,208.608,474.168,202.258
			z"/>
		<path style="fill:#FFFFFF;" d="M416.265,216.439c0,0-9.263-28.43,1.841-33.429c11.104-4.998,15.434,13.144,15.434,13.144
			s13.864-6.452,19.679,4.586C459.034,211.779,431.055,222.505,416.265,216.439z"/>
	</g>
	<g>
		<path style="fill:#CF6469;" d="M408.286,300.493c-1.531-6.471-61.605-25.979-71.454-20.676
			c-4.931,2.656-16.469,52.625-11.398,61.018c1.916,3.171,11.055,7.105,22.048,10.702c0.412,4.583,1.276,11.913,2.664,13.21
			c1.493,1.395,8.059-4.373,11.873-8.91c14.204,3.813,27.788,6.423,30.911,5.809C399.682,360.319,409.817,306.964,408.286,300.493z"
			/>
		<path style="fill:#FFFFFF;" d="M357.175,335.449c0,0-19.4-24.254-10.431-33.173c8.968-8.919,19.811,7.137,19.811,7.137
			s11.12-11.342,20.809-2.736C397.053,315.283,373.773,335.94,357.175,335.449z"/>
	</g>
	<g>
		<path style="fill:#CF6469;" d="M105.729,408.34c1.531-6.471,61.605-25.979,71.454-20.676c4.931,2.656,16.469,52.625,11.398,61.018
			c-1.916,3.171-11.055,7.105-22.048,10.702c-0.412,4.583-1.276,11.913-2.664,13.21c-1.493,1.395-8.059-4.373-11.873-8.91
			c-14.203,3.813-27.788,6.423-30.91,5.809C114.333,468.166,104.199,414.811,105.729,408.34z"/>
		<path style="fill:#FFFFFF;" d="M156.84,443.297c0,0,19.4-24.254,10.431-33.173c-8.968-8.919-19.811,7.137-19.811,7.137
			s-11.12-11.342-20.809-2.736C116.962,423.13,140.243,443.787,156.84,443.297z"/>
	</g>
	<g>
		<path style="fill:#CF6469;" d="M11.853,318.674c0.079-7.784,63.64-45.551,76.253-42.035c6.316,1.76,32.377,55.839,28.751,66.73
			c-1.37,4.114-10.789,10.963-22.414,17.906c0.711,5.339,1.616,13.931,0.365,15.77c-1.345,1.977-10.329-2.914-15.855-7.112
			c-15.234,8.016-30.071,14.5-33.795,14.605C37.106,384.763,11.775,326.458,11.853,318.674z"/>
		<path style="fill:#FFFFFF;" d="M79.226,345.405c0,0,15.895-32.696,3.355-40.567s-20.779,13.258-20.779,13.258
			s-15.622-10.082-24.465,2.243C28.493,332.664,60.402,350.246,79.226,345.405z"/>
	</g>
	<g>
		<path style="fill:#CF6469;" d="M59.204,180.777c2.204-6.838,68.575-22.694,78.727-16.138c5.083,3.283,13.223,58.088,7.041,66.692
			c-2.335,3.25-12.515,6.703-24.663,9.634c-0.837,4.9-2.396,12.72-4.002,13.998c-1.727,1.374-8.304-5.401-12.023-10.615
			c-15.624,2.888-30.478,4.534-33.788,3.605C63.338,245.945,57,187.615,59.204,180.777z"/>
		<path style="fill:#FFFFFF;" d="M111.25,222.808c0,0,22.973-24.457,14.08-34.832c-8.894-10.375-21.948,5.986-21.948,5.986
			s-11.003-13.168-22.176-4.731C70.033,197.669,93.333,221.913,111.25,222.808z"/>
	</g>
	<g>
		<path style="fill:#CF6469;" d="M182.529,45.134c2.931-6.449,69.732-14.485,78.935-6.917c4.608,3.79,6.392,58.39-0.634,66.119
			c-2.654,2.92-13.015,5.153-25.245,6.652c-1.373,4.705-3.783,12.189-5.501,13.259c-1.847,1.151-7.523-6.228-10.577-11.755
			c-15.63,1.064-30.365,0.999-33.502-0.285C179.22,109.432,179.599,51.583,182.529,45.134z"/>
		<path style="fill:#FFFFFF;" d="M228.762,92.18c0,0,25.264-21.361,17.724-32.528c-7.54-11.167-22.174,3.385-22.174,3.385
			s-9.29-14.141-21.187-7.138C191.229,62.902,211.313,89.28,228.762,92.18z"/>
	</g>
	<g>
		<path style="fill:#CF6469;" d="M79.479,102.068c0.074-5.164,42.351-30.05,50.71-27.683c4.186,1.185,21.33,37.138,18.895,44.355
			c-0.92,2.726-7.189,7.245-14.921,11.82c0.457,3.544,1.034,9.248,0.199,10.464c-0.898,1.308-6.846-1.962-10.501-4.762
			c-10.13,5.277-19.992,9.539-22.463,9.598C96.054,145.988,79.405,107.232,79.479,102.068z"/>
		<path style="fill:#FFFFFF;" d="M124.109,119.988c0,0,10.636-21.651,2.337-26.908c-8.299-5.257-13.823,8.74-13.823,8.74
			s-10.338-6.732-16.239,1.422C90.482,111.396,111.606,123.149,124.109,119.988z"/>
	</g>
	<g>
		<path style="fill:#CF6469;" d="M418.802,429.164c-0.877-5.526-50.057-25.675-58.655-21.845
			c-4.305,1.918-17.13,43.12-13.403,50.482c1.408,2.781,8.829,6.657,17.827,10.367c0.057,3.871,0.321,10.076,1.404,11.251
			c1.165,1.264,7.037-3.162,10.523-6.729c11.678,4.093,22.912,7.138,25.571,6.819C407.818,478.821,419.679,434.69,418.802,429.164z"
			/>
		<path style="fill:#FFFFFF;" d="M373.716,455.279c0,0-14.752-21.572-6.665-28.492c8.086-6.92,16.174,7.235,16.174,7.235
			s10.044-8.817,17.633-0.986C408.446,440.867,387.612,456.735,373.716,455.279z"/>
	</g>
	<g>
		<path style="fill:#CF6469;" d="M482.808,363.539c0.221-5.238-41.2-32.882-49.807-30.962c-4.31,0.961-23.745,36.417-21.691,43.87
			c0.776,2.816,6.871,7.754,14.445,12.834c-0.667,3.566-1.578,9.313-0.801,10.594c0.835,1.377,7.05-1.596,10.915-4.225
			c9.964,5.929,19.715,10.813,22.216,11.015C463.493,407.101,482.586,368.777,482.808,363.539z"/>
		<path style="fill:#FFFFFF;" d="M436.549,379.144c0,0-9.539-22.552-0.827-27.405c8.712-4.852,13.509,9.65,13.509,9.65
			s10.863-6.231,16.376,2.371C471.122,372.362,449.04,383.063,436.549,379.144z"/>
	</g>
	<path style="fill:#CF6469;" d="M185.218,137.288l-0.014-0.051c-0.286-0.984-0.927-1.813-1.82-2.322
		c-1.616-0.92-3.591-0.443-4.754,0.899c-0.588,0.417-1.006,0.932-1.401,1.513c-0.877,1.182-1.42,2.61-2.22,3.86
		c-0.308,0.365-0.626,0.719-0.968,1.05c-0.728-0.359-1.455-0.718-2.183-1.078c-0.915-0.452-1.854-0.854-2.819-1.188
		c-1.337-0.462-2.709-0.434-3.989,0.164c-0.915,0.427-1.462,1.582-1.461,2.547c0.005,3.361,3.981,5.363,6.176,7.33
		c1.941,1.739,4.349,2.815,6.963,1.949c1.708-0.566,3.189-1.751,4.463-2.991c2.146-2.09,4.148-5.02,4.553-8.039
		C185.907,139.725,185.868,138.361,185.218,137.288z"/>
	<g>
		<path style="fill:#CF6469;" d="M161.089,54.925c0.01,0.074,0.02,0.149,0.03,0.223c-0.153-0.779-0.455-1.492-1.045-2.099
			c-0.835-0.859-2.031-1.245-3.206-1.087c-0.602,0.081-0.495,0.044-1.057,0.281c-0.331,0.093-0.617,0.26-0.861,0.502
			c-0.495,0.372-0.528,0.405-0.097,0.097c0.862-0.6-0.313,0.252-0.238,0.194c-0.269,0.208-0.486,0.438-0.69,0.683
			c-0.46,0.614-0.811,1.19-1.161,1.88c-0.161,0.317-0.336,0.621-0.525,0.919c-0.031,0.032-0.068,0.06-0.101,0.091
			c-0.271-0.149-0.543-0.296-0.804-0.468c-0.694-0.458-1.34-0.969-2.067-1.376c-1.062-0.594-2.187-1.159-3.434-1.109
			c-1.394,0.055-3.018,0.826-3.102,2.384c-0.041,0.766,0.475,1.535,0.917,2.137c0.586,0.796,1.333,1.47,1.965,2.233
			c1.112,1.343,2.473,2.642,4.035,3.43c1.245,0.628,2.491,1.094,3.92,0.965c1.785-0.16,3.21-0.768,4.566-1.936
			c0.85-0.733,1.577-1.708,2.102-2.7C161.089,58.558,161.677,56.731,161.089,54.925z"/>
		<path style="fill:#CF6469;" d="M153.782,53.896c0.048-0.06,0.095-0.12,0.144-0.178c0.056-0.075,0.108-0.149,0.168-0.226
			C153.99,53.627,153.886,53.762,153.782,53.896z"/>
		<path style="fill:#CF6469;" d="M153.782,53.896c-0.116,0.147-0.231,0.297-0.351,0.454
			C153.548,54.199,153.665,54.048,153.782,53.896z"/>
	</g>
	<g>
		<path style="fill:#CF6469;" d="M67.925,148.188c-0.221-0.338-0.457-0.707-0.739-0.99c-0.388-0.388-0.797-0.514-1.239-0.736
			c-0.18-0.076-0.361-0.152-0.541-0.228c-0.3-0.083-0.616-0.082-0.92-0.041c-0.208,0.001-0.402,0.053-0.582,0.158
			c-0.292,0.161-0.355,0.173-0.189,0.035c0.028-0.027,0.057-0.055,0.086-0.082c-0.453,0.108-0.847,0.315-1.183,0.623
			c-0.178,0.138-0.339,0.268-0.508,0.408c-0.884,0.73-1.361,1.766-1.791,2.812c-0.179,0.387-0.386,0.759-0.622,1.114
			c-0.022,0.025-0.049,0.046-0.072,0.071c-0.046-0.016-0.093-0.03-0.14-0.045c-0.61-0.306-1.2-0.645-1.809-0.951
			c-1.69-0.852-4.274-2.107-6.087-0.975c-0.479,0.206-0.886,0.487-1.311,0.849c-0.702,0.599-0.693,1.943,0,2.541
			c0.164,0.142,0.313,0.302,0.464,0.458c0.1,0.147,0.206,0.287,0.321,0.41c0.116,0.125,0.253,0.227,0.392,0.327
			c0.003,0.003,0.002,0.003,0.006,0.007c0.395,0.427,0.892,0.782,1.361,1.117c0.139,0.099,0.278,0.198,0.417,0.297
			c0.023,0.017,0.029,0.02,0.048,0.033c0.459,0.369,0.916,0.742,1.392,1.088c1.365,0.993,2.933,1.864,4.602,2.203
			c2.525,0.513,5.356-0.092,7.085-2.125c0.907-1.066,1.618-2.199,2.007-3.561C68.813,151.462,68.817,149.555,67.925,148.188z"/>
		<path style="fill:#CF6469;" d="M65.651,146.304c0.101,0.063,0.199,0.11,0.296,0.159c0.003,0.001,0.006,0.003,0.01,0.004
			C65.855,146.413,65.753,146.358,65.651,146.304z"/>
	</g>
	<path style="fill:#CF6469;" d="M142.891,300.949c-0.017-0.368-0.113-0.715-0.245-1.052c0.012-0.015,0.008-0.078-0.028-0.242
		c-0.498-2.961-4.681-3.734-6.583-1.738c-0.04,0.043-0.071,0.076-0.093,0.102c-0.023,0.018-0.039,0.03-0.064,0.049
		c-0.332,0.196-0.596,0.46-0.792,0.792c-0.463,0.609-0.461,0.596,0.007-0.04c-0.227-0.03-1.085,1.462-1.278,1.78
		c-0.482,0.791-0.874,1.62-1.324,2.428c-0.171,0.307-0.356,0.604-0.543,0.899c-0.713-0.699-1.388-1.373-2.235-2.006
		c-2.527-1.89-7.309-2.322-9.086,0.84c-0.776,1.38-0.51,3.011,0.536,4.154c0.307,0.335,0.745,0.75,1.194,0.993
		c0.021,0.022,0.044,0.043,0.064,0.066c0.166,0.171,0.334,0.334,0.502,0.504c0.679,0.687,1.321,1.385,1.961,2.11
		c1.953,2.211,4.697,4.206,7.789,4.086c3.767-0.146,6.059-2.953,7.911-5.9c0.791-1.259,1.51-2.607,1.939-4.034
		c0.256-0.852,0.422-1.768,0.455-2.652C142.991,301.716,142.94,301.314,142.891,300.949z"/>
	<path style="fill:#CF6469;" d="M83.084,413.327c-0.081-0.431-0.256-0.865-0.461-1.252c-0.111-0.147-0.203-0.268-0.285-0.375
		c-0.019-0.035-0.035-0.071-0.056-0.105c-0.72-1.274-2.224-1.934-3.639-1.744c-1.246,0.167-2.694,1.139-2.994,2.464
		c-0.199,0.39-0.234,0.615-0.347,1.012c-0.036,0.126-0.087,0.249-0.13,0.375c-0.137,0.26-0.284,0.513-0.447,0.758
		c-0.071,0.076-0.148,0.146-0.224,0.218c-0.034,0.02-0.071,0.036-0.105,0.056c-0.253,0.084-0.511,0.153-0.771,0.211
		c-0.285,0.011-0.57,0.008-0.855-0.011c-0.7-0.151-1.372-0.376-2.058-0.611c-0.094-0.032-0.532-0.245-0.679-0.262
		c-0.014-0.007-0.029-0.013-0.043-0.02c-0.58-0.278-1.15-0.569-1.782-0.695c-0.9-0.116-1.103-0.144-0.609-0.086
		c0.282,0.041,0.291,0.034,0.024-0.021c-0.354-0.083-0.762-0.146-1.126-0.153c-0.852-0.016-1.683,0.284-2.294,0.893
		c-1.011,1.007-1.162,2.618,0.004,3.416c0.009,0.013,0.02,0.029,0.045,0.059c0.012-0.002,0.069,0.038,0.14,0.09
		c-0.067-0.023-0.053-0.01,0.061,0.048c-0.005-0.005-0.007-0.007-0.012-0.011c0.306,0.235,0.811,0.677,0.331,0.34
		c-0.168-0.237-0.199-0.249-0.077-0.005c0.08,0.19,0.185,0.343,0.302,0.51c0.782,1.125,1.997,2.137,3.141,2.871
		c1.983,1.271,4.624,2.063,6.984,1.846c1.405-0.129,2.739-0.453,3.938-1.236c1.196-0.782,2.087-1.687,2.908-2.847
		c0.591-0.836,0.983-1.89,1.14-2.906C83.268,415.107,83.282,414.374,83.084,413.327z"/>
	<g>
		<path style="fill:#CF6469;" d="M288.077,115.544c0.003,0.009,0.006,0.017,0.01,0.026c0.021,0.042,0.041,0.085,0.065,0.125
			c0.035,0.059,0.066,0.104,0.094,0.14c-0.031-0.062-0.084-0.16-0.154-0.285C288.09,115.551,288.081,115.545,288.077,115.544z"/>
		<path style="fill:#CF6469;" d="M280.212,112.334c0.002-0.035,0.006-0.062,0.009-0.096c-0.126,0.397-0.1,0.475-0.059,0.365
			c0.012-0.085,0.032-0.163,0.048-0.246C280.21,112.349,280.211,112.342,280.212,112.334z"/>
		<path style="fill:#CF6469;" d="M298.15,118.954c0.715-0.908,1.118-2.189,0.717-3.312c-0.107-0.3-0.232-0.594-0.372-0.881
			c-0.534-1.094-1.982-1.896-3.185-1.827c-0.153,0.005-0.305,0.031-0.457,0.051c-0.764-0.096-1.538-0.03-2.348,0.222
			c-0.121,0.019-0.246,0.029-0.36,0.061c-0.45,0.124-0.898,0.375-1.326,0.566c-0.344,0.153-0.68,0.318-1.017,0.487
			c-0.354,0.178-0.717,0.342-1.077,0.512c-0.262,0.09-0.527,0.169-0.795,0.232c-0.012-0.043-0.025-0.086-0.038-0.13
			c-0.108-0.373-0.235-0.739-0.359-1.107c-0.393-1.165-0.826-2.26-1.708-3.155c-0.346-0.351-0.759-0.696-1.183-0.943
			c-1.336-0.779-3.216-0.39-3.996,0.999c-0.303,0.541-0.379,0.922-0.424,1.51c0.016-0.052,0.031-0.1,0.053-0.163
			c-0.031,0.088-0.046,0.186-0.065,0.281c-0.009,0.112-0.029,0.197-0.048,0.246c-0.016,0.109-0.03,0.219-0.048,0.321
			c-0.171,0.973-0.297,2.103-0.293,3.101c0.011,2.94,1.089,5.689,3.628,7.337c2.344,1.521,5.416,1.66,8.014,0.746
			c1.328-0.467,2.425-1.055,3.536-1.887c0.481-0.36,0.976-0.72,1.426-1.123c0.499-0.446,1.303-1.943,0.502-0.526
			c0.32-0.321,0.603-0.674,0.85-1.058c-0.13,0.168-0.259,0.336-0.389,0.503C297.704,119.7,297.953,119.342,298.15,118.954z"/>
	</g>
	<g>
		<path style="fill:#CF6469;" d="M449.554,150.204c-0.031,0.005-0.06,0.006-0.091,0.01c-0.029,0.005-0.058,0.009-0.088,0.014
			C449.435,150.22,449.495,150.212,449.554,150.204z"/>
		<path style="fill:#CF6469;" d="M452.575,148.284c0.341-0.46,0.562-1.143,0.54-1.636c-0.02-0.441-0.13-0.833-0.311-1.199
			c-0.104-0.287-0.243-0.563-0.462-0.846c-0.064-0.083-0.138-0.142-0.205-0.217c-0.828-1.216-2.41-1.662-3.771-2.005
			c-0.874-0.22-1.75-0.385-2.631-0.573c-0.513-0.109-1.019-0.25-1.528-0.379c0.095-0.322,0.192-0.643,0.283-0.965
			c0.27-0.951,0.501-1.942,0.594-2.927c0.114-1.215-0.25-2.364-1.165-3.199c-1.144-1.044-2.776-0.826-3.629,0.289
			c-0.111,0.098-0.21,0.207-0.288,0.339c-0.077,0.1-0.356,0.395-0.396,0.561c0.356-0.458,0.369-0.473,0.038-0.046
			c-0.126,0.157-0.248,0.318-0.365,0.482c-0.076,0.119-0.139,0.248-0.208,0.371c-0.368,0.655-0.697,1.315-1.013,1.996
			c-0.615,1.32-1.187,2.674-1.859,3.966c-0.914,1.757-0.528,4.211,1.364,5.203c1.728,0.906,3.496,1.595,5.382,2.09
			c1.094,0.287,2.195,0.543,3.322,0.662c1.109,0.117,2.086,0.117,3.196-0.037c0.793-0.126,1.557-0.347,2.148-0.943
			C451.996,149.008,452.326,148.688,452.575,148.284z"/>
		<path style="fill:#CF6469;" d="M449.376,150.228c-0.284,0.038-0.569,0.077-0.853,0.115
			C448.805,150.305,449.092,150.271,449.376,150.228z"/>
	</g>
	<path style="fill:#CF6469;" d="M400.304,266.45c0.173-0.524,0.243-1.054,0.163-1.645c-0.103-0.765-0.415-1.528-0.993-2.072
		c-0.082-0.078-0.149-0.165-0.228-0.245c-0.361-0.367-0.722-0.586-1.115-0.77c-0.483-0.246-0.982-0.462-1.49-0.657
		c-0.56-0.215-1.177-0.212-1.772-0.278c-0.449-0.063-0.899-0.126-1.348-0.185c-0.001-0.001-0.003-0.001-0.004-0.002
		c0.29,0.039,0.581,0.078,0.872,0.117c-0.408-0.059-0.802-0.16-1.192-0.281c-0.021-0.012-0.04-0.026-0.061-0.039
		c-0.025-0.025-0.046-0.053-0.071-0.078c-0.022-0.038-0.039-0.078-0.06-0.117c-0.051-0.155-0.088-0.311-0.128-0.468
		c0-0.139-0.016-0.277-0.03-0.416c0.001,0.008,0.002,0.015,0.003,0.023c-0.027-0.231-0.033-0.457-0.008-0.688
		c-0.006,0.042-0.011,0.084-0.017,0.126c0.035-0.431,0.025-0.862-0.092-1.287c-0.219-0.795-0.709-1.465-1.354-1.963
		c-0.543-0.42-1.108-0.653-1.787-0.744c-0.893-0.12-1.587,0.07-2.409,0.448c-0.979,0.45-1.836,1.287-2.414,2.187
		c-0.643,1.001-0.818,2.35-0.931,3.492c-0.17,1.713,0.546,3.799,1.515,5.191c0.799,1.148,1.547,1.916,2.733,2.682
		c0.886,0.573,1.923,0.99,2.94,1.256c0.713,0.187,1.471,0.263,2.194,0.351c0.777,0.094,1.382-0.032,2.207-0.154
		c0.343-0.051,0.688-0.108,1.023-0.197c1.024-0.272,1.851-0.913,2.618-1.608c-0.126,0.098-0.253,0.195-0.379,0.293
		c0.322-0.254,0.596-0.496,0.875-0.858c0.185-0.239,0.325-0.475,0.446-0.722c-0.019,0.045-0.038,0.09-0.057,0.135
		c0.028-0.056,0.056-0.112,0.083-0.169c0.104-0.213,0.188-0.424,0.259-0.636c0.015-0.038,0.029-0.073,0.045-0.113
		C400.33,266.388,400.317,266.419,400.304,266.45z"/>
	<g>
		<path style="fill:#CF6469;" d="M365.098,389.489c0.142-0.86-0.172-1.698-0.876-2.208c-0.004-0.004-0.008-0.007-0.012-0.011
			c0.001,0.001,0.002,0.003,0.003,0.004c-0.032-0.023-0.061-0.048-0.095-0.07c-0.029-0.031-0.058-0.063-0.088-0.093
			c-0.001-0.001-0.002-0.002-0.003-0.003c0.001,0.001,0.002,0.001,0.002,0.002c-0.28-0.279-0.594-0.516-1.008-0.691
			c-0.303-0.128-0.545-0.173-0.842-0.27c0.022,0.009,0.043,0.018,0.065,0.027c-0.41-0.149-0.826-0.277-1.24-0.418
			c-0.137-0.07-0.272-0.142-0.404-0.221c-0.08-0.074-0.158-0.15-0.232-0.229c-0.095-0.156-0.183-0.311-0.266-0.473
			c-0.144-0.419-0.256-0.849-0.335-1.283c-0.012-0.144-0.022-0.288-0.041-0.433c-0.071-0.524-0.241-0.959-0.497-1.428
			c-0.591-1.08-1.955-1.564-3.114-1.267c-2.054,0.527-3.09,2.818-3.222,4.769c-0.098,1.453,0.27,3.014,1.037,4.252
			c0.375,0.606,0.832,1.216,1.364,1.697c0.836,0.756,1.625,1.227,2.672,1.621c0.661,0.248,1.508,0.419,2.19,0.408
			c0.526-0.009,1.059-0.098,1.575-0.183c0.498-0.081,0.928-0.342,1.376-0.554c-0.016,0.007-0.032,0.014-0.048,0.02
			c0.24-0.116,0.471-0.249,0.691-0.419c0.588-0.454,1.028-1.09,1.212-1.819l-0.047,0.111
			C365.011,390.056,365.077,389.778,365.098,389.489z"/>
		<path style="fill:#CF6469;" d="M364.167,387.216c0.001,0.001,0.002,0.003,0.003,0.005c0.016,0.012,0.032,0.025,0.048,0.037
			C364.202,387.244,364.185,387.23,364.167,387.216z"/>
		<path style="fill:#CF6469;" d="M364.209,387.27c-0.013-0.017-0.025-0.033-0.038-0.049c-0.048-0.037-0.095-0.074-0.143-0.111
			c0.001,0,0.001,0.001,0.001,0.001C364.092,387.163,364.152,387.216,364.209,387.27z"/>
	</g>
	<path style="fill:#CF6469;" d="M453.628,450.889c0-1.547-1.312-2.969-2.767-3.337c-0.684-0.173-1.392-0.248-2.096-0.318
		c-0.628-0.102-1.261-0.137-1.894-0.188c-0.454-0.08-0.899-0.189-1.337-0.335c-0.181-0.096-0.357-0.204-0.53-0.316
		c-0.081-0.077-0.158-0.161-0.237-0.242c-0.013-0.022-0.022-0.045-0.034-0.067c-0.037-0.125-0.072-0.251-0.101-0.378
		c-0.139-1.736-0.051-3.473-0.43-5.191c-0.292-1.325-0.98-2.617-2.166-3.337c-1.281-0.778-3.57-0.674-4.108,1.03
		c-0.075,0.154-0.132,0.312-0.151,0.482c-0.03,0.161-0.04,0.324-0.059,0.486c-0.012,0.084-0.046,0.342-0.105,0.792
		c-0.009,0.437-0.071,0.973-0.033,1.419c-0.013,0.064-0.024,0.129-0.038,0.193c-0.054,0.266-0.107,0.53-0.156,0.797
		c-0.097,0.538-0.198,1.074-0.276,1.615c-0.227,1.564-0.306,3.102,0.202,4.632c0.481,1.448,1.328,2.837,2.492,3.836
		c2.488,2.136,5.923,3.325,9.201,2.651c0.31-0.064,0.638-0.135,0.942-0.222c0.386-0.144,0.768-0.302,1.143-0.473
		c-0.749,0.323-0.608,0.265,0.424-0.174c0.653-0.353,1.238-0.852,1.618-1.502c0.293-0.505,0.444-1.048,0.464-1.627
		C453.608,451.045,453.617,450.975,453.628,450.889z"/>
	<path style="fill:#CF6469;" d="M204.386,467.876c0.01,0.074,0.02,0.148,0.03,0.222c0.001-0.667-0.125-1.285-0.372-1.856
		c-0.252-0.799-0.763-1.507-1.464-1.971c0.109,0.073,0.225,0.149,0.212,0.142c-0.295-0.172-0.487-0.414-0.775-0.569
		c-1.111-0.598-2.298-0.385-3.225,0.416c-0.044,0.038-0.078,0.086-0.119,0.128c-0.249,0.194-0.47,0.41-0.672,0.645
		c-0.015,0.016-0.033,0.027-0.048,0.043c-0.281,0.268-0.504,0.573-0.669,0.915c0.092-0.109,0.185-0.218,0.277-0.327
		c-0.01,0.018-0.022,0.033-0.032,0.051c-0.198,0.221-0.396,0.441-0.555,0.696c-0.174,0.277-0.331,0.56-0.507,0.834
		c-0.048,0.052-0.095,0.108-0.145,0.158c-0.057,0.034-0.114,0.069-0.172,0.101c-0.058,0.017-0.118,0.033-0.177,0.049
		c-0.046,0.001-0.092-0.002-0.137-0.003c-0.003-0.001-0.007-0.001-0.01-0.002c-0.003-0.002-0.007-0.004-0.01-0.006
		c-0.123-0.121-0.259-0.229-0.372-0.364c-0.044-0.052-0.072-0.084-0.1-0.114c-0.04-0.065-0.076-0.122-0.094-0.147
		c-0.731-1.027-1.415-1.995-2.456-2.727c-0.925-0.651-2.028-1.056-3.165-1.082c-0.699-0.016-1.413,0.102-2.034,0.437
		c-0.612,0.33-1.003,0.868-1.347,1.448c-0.474,0.798-0.426,2.186,0.363,2.811c0.014,0.011,0.028,0.021,0.042,0.032
		c0.078,0.11,0.141,0.223,0.238,0.332c0.124,0.143,0.266,0.265,0.417,0.378c0.087,0.097,0.227,0.201,0.301,0.28
		c0.021,0.021,0.04,0.042,0.06,0.063c0.37,0.647,0.713,1.3,1.03,1.977c1.035,2.215,2.828,3.851,5.184,4.568
		c2.165,0.659,4.892,0.414,6.801-0.851c1.092-0.723,2.061-1.63,2.747-2.757c0.347-0.57,0.598-1.249,0.801-1.881
		C204.477,469.189,204.466,468.564,204.386,467.876z"/>
</g>
</svg>
