<svg xmlns="http://www.w3.org/2000/svg" version="1.1" xmlns:xlink="http://www.w3.org/1999/xlink" xmlns:svgjs="http://svgjs.dev/svgjs" width="2000" height="353" viewBox="0 0 2000 353"><g transform="matrix(1,0,0,1,-1.2121212121212466,-1.8797887715397792)"><svg viewBox="0 0 396 70" data-background-color="#ffffff" preserveAspectRatio="xMidYMid meet" height="353" width="2000" xmlns="http://www.w3.org/2000/svg" xmlns:xlink="http://www.w3.org/1999/xlink"><g id="tight-bounds" transform="matrix(1,0,0,1,0.2400000000000091,0.3727626459144062)"><svg viewBox="0 0 395.52 69.2544747081712" height="69.2544747081712" width="395.52"><g><svg viewBox="0 0 395.52 69.2544747081712" height="69.2544747081712" width="395.52"><g><svg viewBox="0 0 395.52 69.2544747081712" height="69.2544747081712" width="395.52"><g id="textblocktransform"><svg viewBox="0 0 395.52 69.2544747081712" height="69.2544747081712" width="395.52" id="textblock"><g><svg viewBox="0 0 395.52 69.2544747081712" height="69.2544747081712" width="395.52"><g transform="matrix(1,0,0,1,0,0)"><svg width="395.52" viewBox="0.4 -35.25 205.57999999999998 36" height="69.2544747081712" data-palette-color="url(#8b7feeab-8170-4a10-9e7a-c374329fb0c6)"></svg></g></svg></g></svg></g></svg></g><g></g></svg></g><defs></defs><mask id="00d265e5-ea1c-4d09-bfb3-a6b823657ac6"><g id="SvgjsG1068"><svg viewBox="0 0 395.52 69.2544747081712" height="69.2544747081712" width="395.52"><g><svg viewBox="0 0 395.52 69.2544747081712" height="69.2544747081712" width="395.52"><g><svg viewBox="0 0 395.52 69.2544747081712" height="69.2544747081712" width="395.52"><g id="SvgjsG1067"><svg viewBox="0 0 395.52 69.2544747081712" height="69.2544747081712" width="395.52" id="SvgjsSvg1066"><g><svg viewBox="0 0 395.52 69.2544747081712" height="69.2544747081712" width="395.52"><g transform="matrix(1,0,0,1,0,0)"><svg width="395.52" viewBox="0.4 -35.25 205.57999999999998 36" height="69.2544747081712" data-palette-color="url(#8b7feeab-8170-4a10-9e7a-c374329fb0c6)"><path d="M0.4-34.55L21.95-34.55 21.25-29.55 14.15-29.55 14.15 0 7.8 0 7.8-29.55 0.4-29.55 0.4-34.55ZM25-34.55L42.15-34.55 41.5-29.8 31.35-29.8 31.35-19.9 40.2-19.9 40.2-15.2 31.35-15.2 31.35-4.8 42.15-4.8 42.15 0 25 0 25-34.55ZM68.59 0L62.15 0 60.45-8.1 51.55-8.1 49.9 0 43.55 0 52.25-34.55 59.95-34.55 68.59 0ZM56-29.7L52.55-12.9 59.5-12.9 56-29.7ZM97.54-34.55L99.74 0 93.69 0 93.09-14.6Q92.79-22.6 92.79-26L92.79-26 92.84-28.6 88.09-3.8 82.09-3.8 77.14-28.65Q77.19-27.15 77.19-24.05L77.19-24.05Q77.19-18.8 76.99-14.4L76.99-14.4 76.44 0 70.49 0 72.69-34.55 80.69-34.55 85.19-10.2 89.39-34.55 97.54-34.55ZM111.04 0L104.69 0 104.69-34.55 121.39-34.55 120.69-29.8 111.04-29.8 111.04-19.25 119.44-19.25 119.44-14.5 111.04-14.5 111.04 0ZM124.84-34.55L131.19-34.55 131.19-5.25 142.34-5.25 141.64 0 124.84 0 124.84-34.55ZM157.14-35.25Q163.24-35.25 166.54-30.8 169.84-26.35 169.84-17.3L169.84-17.3Q169.84-8.35 166.54-3.8 163.24 0.75 157.14 0.75L157.14 0.75Q151.09 0.75 147.76-3.75 144.44-8.25 144.44-17.25L144.44-17.25Q144.44-26.15 147.76-30.7 151.09-35.25 157.14-35.25L157.14-35.25ZM157.14-30.45Q154.09-30.45 152.61-27.4 151.14-24.35 151.14-17.25L151.14-17.25Q151.14-10.1 152.64-7.13 154.14-4.15 157.14-4.15L157.14-4.15Q160.24-4.15 161.71-7.1 163.19-10.05 163.19-17.3L163.19-17.3Q163.19-24.4 161.69-27.43 160.19-30.45 157.14-30.45L157.14-30.45ZM200.08-34.55L205.98-34.55 201.13 0 192.78 0 189.08-27.8 185.23 0 177.03 0 172.28-34.55 178.43-34.55 181.63-5.1 185.78-34.55 192.53-34.55 196.58-5.1 200.08-34.55Z" opacity="1" transform="matrix(1,0,0,1,0,0)" fill="white" class="wordmark-text-0" id="SvgjsPath1065"></path></svg></g></svg></g></svg></g></svg></g><g></g></svg></g><defs><mask></mask></defs></svg><rect width="395.52" height="69.2544747081712" fill="black" stroke="none" visibility="hidden"></rect></g></mask><linearGradient x1="0" x2="1" y1="0.548" y2="0.55" id="8b7feeab-8170-4a10-9e7a-c374329fb0c6"><stop stop-color="#ff6cab" offset="0"></stop><stop stop-color="#7366ff" offset="1"></stop></linearGradient><rect width="395.52" height="69.2544747081712" fill="url(#8b7feeab-8170-4a10-9e7a-c374329fb0c6)" mask="url(#00d265e5-ea1c-4d09-bfb3-a6b823657ac6)" data-fill-palette-color="primary"></rect></svg><rect width="395.52" height="69.2544747081712" fill="none" stroke="none" visibility="hidden"></rect></g></svg></g></svg>